G75*
G70*
%OFA0B0*%
%FSLAX24Y24*%
%IPPOS*%
%LPD*%
%AMOC8*
5,1,8,0,0,1.08239X$1,22.5*
%
%ADD10C,0.0030*%
D10*
X010508Y014690D02*
X010604Y014690D01*
X010653Y014739D01*
X010653Y014835D01*
X010604Y014884D01*
X010508Y014884D01*
X010459Y014835D01*
X010459Y014787D01*
X010653Y014787D01*
X010754Y014835D02*
X010754Y014690D01*
X010754Y014835D02*
X010802Y014884D01*
X010947Y014884D01*
X010947Y014690D01*
X011049Y014690D02*
X011049Y014835D01*
X011097Y014884D01*
X011194Y014884D01*
X011194Y014787D02*
X011049Y014787D01*
X011049Y014690D02*
X011194Y014690D01*
X011242Y014739D01*
X011194Y014787D01*
X011343Y014739D02*
X011392Y014690D01*
X011440Y014739D01*
X011488Y014690D01*
X011537Y014739D01*
X011537Y014884D01*
X011638Y014835D02*
X011686Y014884D01*
X011783Y014884D01*
X011831Y014835D01*
X011831Y014739D01*
X011783Y014690D01*
X011686Y014690D01*
X011638Y014739D01*
X011638Y014835D01*
X011343Y014884D02*
X011343Y014739D01*
X011933Y014690D02*
X012029Y014787D01*
X011981Y014787D02*
X012126Y014787D01*
X012126Y014690D02*
X012126Y014981D01*
X011981Y014981D01*
X011933Y014932D01*
X011933Y014835D01*
X011981Y014787D01*
X012520Y014690D02*
X012617Y014690D01*
X012569Y014690D02*
X012569Y014981D01*
X012617Y014981D01*
X012718Y014835D02*
X012718Y014787D01*
X012912Y014787D01*
X012912Y014835D02*
X012863Y014884D01*
X012767Y014884D01*
X012718Y014835D01*
X012767Y014690D02*
X012863Y014690D01*
X012912Y014739D01*
X012912Y014835D01*
X013013Y014835D02*
X013013Y014690D01*
X013158Y014690D01*
X013206Y014739D01*
X013158Y014787D01*
X013013Y014787D01*
X013013Y014835D02*
X013061Y014884D01*
X013158Y014884D01*
X013308Y014835D02*
X013308Y014690D01*
X013308Y014835D02*
X013356Y014884D01*
X013453Y014884D01*
X013501Y014835D01*
X013602Y014884D02*
X013747Y014884D01*
X013796Y014835D01*
X013796Y014739D01*
X013747Y014690D01*
X013602Y014690D01*
X013501Y014690D02*
X013501Y014981D01*
X013895Y014690D02*
X013992Y014690D01*
X013944Y014690D02*
X013944Y014884D01*
X013992Y014884D01*
X013944Y014981D02*
X013944Y015029D01*
X014093Y014981D02*
X014093Y014690D01*
X014287Y014690D02*
X014287Y014981D01*
X014190Y014884D01*
X014093Y014981D01*
M02*
