G75*
G70*
%OFA0B0*%
%FSLAX24Y24*%
%IPPOS*%
%LPD*%
%AMOC8*
5,1,8,0,0,1.08239X$1,22.5*
%
%ADD10C,0.0000*%
%ADD11R,0.1000X0.0598*%
%ADD12R,0.0394X0.0433*%
%ADD13C,0.0600*%
%ADD14C,0.0160*%
%ADD15C,0.0376*%
D10*
X008003Y000108D02*
X008003Y016250D01*
X017058Y016250D01*
X017058Y000108D01*
X008003Y000108D01*
X008751Y001289D02*
X008753Y001330D01*
X008759Y001371D01*
X008769Y001411D01*
X008782Y001450D01*
X008799Y001487D01*
X008820Y001523D01*
X008844Y001557D01*
X008871Y001588D01*
X008900Y001616D01*
X008933Y001642D01*
X008967Y001664D01*
X009004Y001683D01*
X009042Y001698D01*
X009082Y001710D01*
X009122Y001718D01*
X009163Y001722D01*
X009205Y001722D01*
X009246Y001718D01*
X009286Y001710D01*
X009326Y001698D01*
X009364Y001683D01*
X009400Y001664D01*
X009435Y001642D01*
X009468Y001616D01*
X009497Y001588D01*
X009524Y001557D01*
X009548Y001523D01*
X009569Y001487D01*
X009586Y001450D01*
X009599Y001411D01*
X009609Y001371D01*
X009615Y001330D01*
X009617Y001289D01*
X009615Y001248D01*
X009609Y001207D01*
X009599Y001167D01*
X009586Y001128D01*
X009569Y001091D01*
X009548Y001055D01*
X009524Y001021D01*
X009497Y000990D01*
X009468Y000962D01*
X009435Y000936D01*
X009401Y000914D01*
X009364Y000895D01*
X009326Y000880D01*
X009286Y000868D01*
X009246Y000860D01*
X009205Y000856D01*
X009163Y000856D01*
X009122Y000860D01*
X009082Y000868D01*
X009042Y000880D01*
X009004Y000895D01*
X008968Y000914D01*
X008933Y000936D01*
X008900Y000962D01*
X008871Y000990D01*
X008844Y001021D01*
X008820Y001055D01*
X008799Y001091D01*
X008782Y001128D01*
X008769Y001167D01*
X008759Y001207D01*
X008753Y001248D01*
X008751Y001289D01*
X015444Y001289D02*
X015446Y001330D01*
X015452Y001371D01*
X015462Y001411D01*
X015475Y001450D01*
X015492Y001487D01*
X015513Y001523D01*
X015537Y001557D01*
X015564Y001588D01*
X015593Y001616D01*
X015626Y001642D01*
X015660Y001664D01*
X015697Y001683D01*
X015735Y001698D01*
X015775Y001710D01*
X015815Y001718D01*
X015856Y001722D01*
X015898Y001722D01*
X015939Y001718D01*
X015979Y001710D01*
X016019Y001698D01*
X016057Y001683D01*
X016093Y001664D01*
X016128Y001642D01*
X016161Y001616D01*
X016190Y001588D01*
X016217Y001557D01*
X016241Y001523D01*
X016262Y001487D01*
X016279Y001450D01*
X016292Y001411D01*
X016302Y001371D01*
X016308Y001330D01*
X016310Y001289D01*
X016308Y001248D01*
X016302Y001207D01*
X016292Y001167D01*
X016279Y001128D01*
X016262Y001091D01*
X016241Y001055D01*
X016217Y001021D01*
X016190Y000990D01*
X016161Y000962D01*
X016128Y000936D01*
X016094Y000914D01*
X016057Y000895D01*
X016019Y000880D01*
X015979Y000868D01*
X015939Y000860D01*
X015898Y000856D01*
X015856Y000856D01*
X015815Y000860D01*
X015775Y000868D01*
X015735Y000880D01*
X015697Y000895D01*
X015661Y000914D01*
X015626Y000936D01*
X015593Y000962D01*
X015564Y000990D01*
X015537Y001021D01*
X015513Y001055D01*
X015492Y001091D01*
X015475Y001128D01*
X015462Y001167D01*
X015452Y001207D01*
X015446Y001248D01*
X015444Y001289D01*
X015444Y015069D02*
X015446Y015110D01*
X015452Y015151D01*
X015462Y015191D01*
X015475Y015230D01*
X015492Y015267D01*
X015513Y015303D01*
X015537Y015337D01*
X015564Y015368D01*
X015593Y015396D01*
X015626Y015422D01*
X015660Y015444D01*
X015697Y015463D01*
X015735Y015478D01*
X015775Y015490D01*
X015815Y015498D01*
X015856Y015502D01*
X015898Y015502D01*
X015939Y015498D01*
X015979Y015490D01*
X016019Y015478D01*
X016057Y015463D01*
X016093Y015444D01*
X016128Y015422D01*
X016161Y015396D01*
X016190Y015368D01*
X016217Y015337D01*
X016241Y015303D01*
X016262Y015267D01*
X016279Y015230D01*
X016292Y015191D01*
X016302Y015151D01*
X016308Y015110D01*
X016310Y015069D01*
X016308Y015028D01*
X016302Y014987D01*
X016292Y014947D01*
X016279Y014908D01*
X016262Y014871D01*
X016241Y014835D01*
X016217Y014801D01*
X016190Y014770D01*
X016161Y014742D01*
X016128Y014716D01*
X016094Y014694D01*
X016057Y014675D01*
X016019Y014660D01*
X015979Y014648D01*
X015939Y014640D01*
X015898Y014636D01*
X015856Y014636D01*
X015815Y014640D01*
X015775Y014648D01*
X015735Y014660D01*
X015697Y014675D01*
X015661Y014694D01*
X015626Y014716D01*
X015593Y014742D01*
X015564Y014770D01*
X015537Y014801D01*
X015513Y014835D01*
X015492Y014871D01*
X015475Y014908D01*
X015462Y014947D01*
X015452Y014987D01*
X015446Y015028D01*
X015444Y015069D01*
X008751Y015069D02*
X008753Y015110D01*
X008759Y015151D01*
X008769Y015191D01*
X008782Y015230D01*
X008799Y015267D01*
X008820Y015303D01*
X008844Y015337D01*
X008871Y015368D01*
X008900Y015396D01*
X008933Y015422D01*
X008967Y015444D01*
X009004Y015463D01*
X009042Y015478D01*
X009082Y015490D01*
X009122Y015498D01*
X009163Y015502D01*
X009205Y015502D01*
X009246Y015498D01*
X009286Y015490D01*
X009326Y015478D01*
X009364Y015463D01*
X009400Y015444D01*
X009435Y015422D01*
X009468Y015396D01*
X009497Y015368D01*
X009524Y015337D01*
X009548Y015303D01*
X009569Y015267D01*
X009586Y015230D01*
X009599Y015191D01*
X009609Y015151D01*
X009615Y015110D01*
X009617Y015069D01*
X009615Y015028D01*
X009609Y014987D01*
X009599Y014947D01*
X009586Y014908D01*
X009569Y014871D01*
X009548Y014835D01*
X009524Y014801D01*
X009497Y014770D01*
X009468Y014742D01*
X009435Y014716D01*
X009401Y014694D01*
X009364Y014675D01*
X009326Y014660D01*
X009286Y014648D01*
X009246Y014640D01*
X009205Y014636D01*
X009163Y014636D01*
X009122Y014640D01*
X009082Y014648D01*
X009042Y014660D01*
X009004Y014675D01*
X008968Y014694D01*
X008933Y014716D01*
X008900Y014742D01*
X008871Y014770D01*
X008844Y014801D01*
X008820Y014835D01*
X008799Y014871D01*
X008782Y014908D01*
X008769Y014947D01*
X008759Y014987D01*
X008753Y015028D01*
X008751Y015069D01*
D11*
X009034Y013419D03*
X009034Y012419D03*
X009034Y011419D03*
X009034Y010419D03*
X009034Y008695D03*
X009034Y007695D03*
X009034Y006695D03*
X009034Y005695D03*
X015632Y005695D03*
X015632Y006695D03*
X015632Y007695D03*
X015632Y008695D03*
X015632Y010419D03*
X015632Y011419D03*
X015632Y012419D03*
X015632Y013419D03*
D12*
X015877Y004380D03*
X015877Y003711D03*
X015089Y003199D03*
X015089Y002530D03*
X014302Y003711D03*
X014302Y004380D03*
X013514Y003199D03*
X013514Y002530D03*
D13*
X012258Y002958D02*
X012258Y003558D01*
X011258Y003558D02*
X011258Y002958D01*
X010258Y002958D02*
X010258Y003558D01*
X009258Y003558D02*
X009258Y002958D01*
D14*
X009258Y003258D02*
X009262Y003262D01*
X009262Y004478D01*
X010258Y003258D02*
X010258Y007089D01*
X011940Y008770D01*
X012727Y008770D01*
X013514Y008770D02*
X015558Y008770D01*
X015632Y008695D01*
X015632Y007695D02*
X014802Y007695D01*
X014695Y007589D01*
X015526Y006801D02*
X015632Y006695D01*
X015227Y006289D01*
X011388Y006289D01*
X013121Y007195D02*
X013514Y006801D01*
X015526Y006801D01*
X015424Y004833D02*
X015089Y004833D01*
X015424Y004833D02*
X015877Y004380D01*
X014302Y004380D01*
X014243Y004439D01*
X011546Y004439D01*
X011258Y004152D01*
X011258Y003258D01*
X011258Y002471D01*
X011546Y002183D01*
X013121Y002183D01*
X013467Y002530D01*
X013514Y002530D01*
X015089Y002530D01*
X015003Y002683D01*
X015003Y003183D02*
X015089Y003199D01*
X014422Y003849D01*
X015168Y003849D01*
X015003Y003183D02*
X015680Y003183D01*
X015877Y003380D01*
X015877Y003711D01*
X014422Y003849D02*
X014302Y003711D01*
X013253Y003691D01*
X013253Y003433D01*
X013503Y003433D01*
X013514Y003199D01*
X013253Y003691D02*
X013168Y003691D01*
X012258Y003258D01*
X013121Y007195D02*
X013121Y011132D01*
X013514Y011526D01*
X015526Y011526D01*
X015632Y011419D01*
X015632Y012419D02*
X014014Y012419D01*
X013908Y012313D01*
X014770Y013419D02*
X014695Y013494D01*
X014770Y013419D02*
X015632Y013419D01*
D15*
X014695Y013494D03*
X013908Y012313D03*
X013514Y008770D03*
X012727Y008770D03*
X014695Y007589D03*
X015089Y004833D03*
X015168Y003849D03*
X011388Y006289D03*
X009262Y004478D03*
M02*
