G75*
G70*
%OFA0B0*%
%FSLAX24Y24*%
%IPPOS*%
%LPD*%
%AMOC8*
5,1,8,0,0,1.08239X$1,22.5*
%
%ADD10C,0.0030*%
%ADD11C,0.0080*%
%ADD12C,0.0060*%
%ADD13C,0.0050*%
D10*
X009986Y000579D02*
X010048Y000517D01*
X010171Y000517D01*
X010233Y000579D01*
X010233Y000640D01*
X010171Y000702D01*
X010048Y000702D01*
X009986Y000764D01*
X009986Y000826D01*
X010048Y000887D01*
X010171Y000887D01*
X010233Y000826D01*
X010380Y000911D02*
X010380Y001158D01*
X010503Y001281D01*
X010627Y001158D01*
X010627Y000911D01*
X010748Y000911D02*
X010871Y000911D01*
X010810Y000911D02*
X010810Y001158D01*
X010748Y001158D01*
X010627Y001096D02*
X010380Y001096D01*
X010416Y000764D02*
X010539Y000764D01*
X010601Y000702D01*
X010601Y000640D01*
X010354Y000640D01*
X010354Y000579D02*
X010354Y000702D01*
X010416Y000764D01*
X010354Y000579D02*
X010416Y000517D01*
X010539Y000517D01*
X010723Y000517D02*
X010723Y000764D01*
X010908Y000764D01*
X010969Y000702D01*
X010969Y000517D01*
X011091Y000517D02*
X011276Y000517D01*
X011338Y000579D01*
X011276Y000640D01*
X011153Y000640D01*
X011091Y000702D01*
X011153Y000764D01*
X011338Y000764D01*
X011459Y000702D02*
X011459Y000579D01*
X011521Y000517D01*
X011644Y000517D01*
X011706Y000579D01*
X011706Y000702D01*
X011644Y000764D01*
X011521Y000764D01*
X011459Y000702D01*
X011669Y000911D02*
X011669Y001281D01*
X011854Y001281D01*
X011916Y001219D01*
X011916Y001096D01*
X011854Y001034D01*
X011669Y001034D01*
X011828Y000764D02*
X011828Y000517D01*
X011828Y000640D02*
X011951Y000764D01*
X012013Y000764D01*
X012037Y000911D02*
X012037Y001158D01*
X012160Y001158D02*
X012222Y001158D01*
X012160Y001158D02*
X012037Y001034D01*
X012344Y001034D02*
X012591Y001034D01*
X012591Y001096D01*
X012529Y001158D01*
X012406Y001158D01*
X012344Y001096D01*
X012344Y000972D01*
X012406Y000911D01*
X012529Y000911D01*
X012503Y000887D02*
X012688Y000887D01*
X012750Y000826D01*
X012750Y000764D01*
X012688Y000702D01*
X012503Y000702D01*
X012688Y000702D02*
X012750Y000640D01*
X012750Y000579D01*
X012688Y000517D01*
X012503Y000517D01*
X012503Y000887D01*
X012712Y000911D02*
X012897Y000911D01*
X012959Y000972D01*
X012897Y001034D01*
X012774Y001034D01*
X012712Y001096D01*
X012774Y001158D01*
X012959Y001158D01*
X013081Y001096D02*
X013142Y001158D01*
X013327Y001158D01*
X013449Y001158D02*
X013449Y000972D01*
X013511Y000911D01*
X013696Y000911D01*
X013696Y001158D01*
X013817Y001158D02*
X013817Y000911D01*
X013915Y000887D02*
X013915Y000517D01*
X013793Y000517D02*
X013793Y000702D01*
X013731Y000764D01*
X013608Y000764D01*
X013608Y000640D02*
X013546Y000579D01*
X013608Y000517D01*
X013793Y000517D01*
X013793Y000640D02*
X013608Y000640D01*
X013425Y000640D02*
X013425Y000702D01*
X013363Y000764D01*
X013240Y000764D01*
X013178Y000702D01*
X013178Y000579D01*
X013240Y000517D01*
X013363Y000517D01*
X013425Y000640D02*
X013178Y000640D01*
X013056Y000764D02*
X012994Y000764D01*
X012871Y000640D01*
X012871Y000517D02*
X012871Y000764D01*
X013081Y000911D02*
X013266Y000911D01*
X013327Y000972D01*
X013266Y001034D01*
X013142Y001034D01*
X013081Y001096D01*
X013817Y001034D02*
X013941Y001158D01*
X014002Y001158D01*
X014124Y001096D02*
X014186Y001158D01*
X014309Y001158D01*
X014371Y001096D01*
X014371Y001034D01*
X014124Y001034D01*
X014124Y000972D02*
X014124Y001096D01*
X014124Y000972D02*
X014186Y000911D01*
X014309Y000911D01*
X014283Y000764D02*
X014221Y000702D01*
X014221Y000579D01*
X014283Y000517D01*
X014407Y000517D01*
X014468Y000579D01*
X014468Y000702D01*
X014407Y000764D01*
X014283Y000764D01*
X014100Y000764D02*
X013915Y000640D01*
X014100Y000517D01*
X014590Y000579D02*
X014651Y000517D01*
X014837Y000517D01*
X014837Y000764D01*
X014958Y000764D02*
X015081Y000764D01*
X015020Y000826D02*
X015020Y000579D01*
X015081Y000517D01*
X014590Y000579D02*
X014590Y000764D01*
X011179Y001158D02*
X011117Y001158D01*
X010994Y001034D01*
X010994Y000911D02*
X010994Y001158D01*
X010810Y001281D02*
X010810Y001343D01*
D11*
X013928Y005624D02*
X013930Y005639D01*
X013936Y005652D01*
X013945Y005664D01*
X013956Y005673D01*
X013970Y005679D01*
X013985Y005681D01*
X014000Y005679D01*
X014013Y005673D01*
X014025Y005664D01*
X014034Y005653D01*
X014040Y005639D01*
X014042Y005624D01*
X014040Y005609D01*
X014034Y005596D01*
X014025Y005584D01*
X014014Y005575D01*
X014000Y005569D01*
X013985Y005567D01*
X013970Y005569D01*
X013957Y005575D01*
X013945Y005584D01*
X013936Y005595D01*
X013930Y005609D01*
X013928Y005624D01*
X013928Y010348D02*
X013930Y010363D01*
X013936Y010376D01*
X013945Y010388D01*
X013956Y010397D01*
X013970Y010403D01*
X013985Y010405D01*
X014000Y010403D01*
X014013Y010397D01*
X014025Y010388D01*
X014034Y010377D01*
X014040Y010363D01*
X014042Y010348D01*
X014040Y010333D01*
X014034Y010320D01*
X014025Y010308D01*
X014014Y010299D01*
X014000Y010293D01*
X013985Y010291D01*
X013970Y010293D01*
X013957Y010299D01*
X013945Y010308D01*
X013936Y010319D01*
X013930Y010333D01*
X013928Y010348D01*
D12*
X012508Y003758D02*
X012008Y003758D01*
X011758Y003508D01*
X011508Y003758D01*
X011008Y003758D01*
X010758Y003508D01*
X010508Y003758D01*
X010008Y003758D01*
X009758Y003508D01*
X009508Y003758D01*
X009008Y003758D01*
X008758Y003508D01*
X008758Y003008D01*
X009008Y002758D01*
X009508Y002758D01*
X009758Y003008D01*
X010008Y002758D01*
X010508Y002758D01*
X010758Y003008D01*
X011008Y002758D01*
X011508Y002758D01*
X011758Y003008D01*
X012008Y002758D01*
X012508Y002758D01*
X012758Y003008D01*
X012758Y003508D01*
X012508Y003758D01*
D13*
X008523Y003258D02*
X008223Y003258D01*
X008448Y003483D01*
X008448Y003033D01*
X012773Y003033D02*
X013073Y003033D01*
X012923Y003033D02*
X012923Y003483D01*
X012773Y003333D01*
M02*
