G75*
G70*
%OFA0B0*%
%FSLAX24Y24*%
%IPPOS*%
%LPD*%
%AMOC8*
5,1,8,0,0,1.08239X$1,22.5*
%
%ADD10C,0.0946*%
%ADD11R,0.1080X0.0678*%
%ADD12R,0.0474X0.0513*%
%ADD13C,0.0680*%
%ADD14C,0.0456*%
D10*
X009184Y001289D03*
X015877Y001289D03*
X015877Y015069D03*
X009184Y015069D03*
D11*
X009034Y005695D03*
X009034Y006695D03*
X009034Y007695D03*
X009034Y008695D03*
X009034Y010419D03*
X009034Y011419D03*
X009034Y012419D03*
X009034Y013419D03*
X015632Y013419D03*
X015632Y012419D03*
X015632Y011419D03*
X015632Y010419D03*
X015632Y008695D03*
X015632Y007695D03*
X015632Y006695D03*
X015632Y005695D03*
D12*
X015877Y004380D03*
X015877Y003711D03*
X015089Y003199D03*
X015089Y002530D03*
X014302Y003711D03*
X014302Y004380D03*
X013514Y003199D03*
X013514Y002530D03*
D13*
X012258Y002958D02*
X012258Y003558D01*
X011258Y003558D02*
X011258Y002958D01*
X010258Y002958D02*
X010258Y003558D01*
X009258Y003558D02*
X009258Y002958D01*
D14*
X009262Y004478D03*
X011388Y006289D03*
X012727Y008770D03*
X013514Y008770D03*
X014695Y007589D03*
X015089Y004833D03*
X015168Y003849D03*
X013908Y012313D03*
X014695Y013494D03*
M02*
