G75*
G70*
%OFA0B0*%
%FSLAX24Y24*%
%IPPOS*%
%LPD*%
%AMOC8*
5,1,8,0,0,1.08239X$1,22.5*
%
%ADD10C,0.0050*%
%ADD11C,0.0060*%
D10*
X006402Y004481D02*
X008961Y004481D01*
X008961Y005882D01*
X006402Y005882D01*
X006402Y004481D01*
D11*
X000731Y001081D02*
X000581Y001081D01*
X000581Y001281D01*
X000731Y001281D01*
X001631Y001281D02*
X001781Y001281D01*
X001781Y001081D01*
X001631Y001081D01*
X002581Y001081D02*
X002731Y001081D01*
X002581Y001081D02*
X002581Y001281D01*
X002731Y001281D01*
X003631Y001281D02*
X003781Y001281D01*
X003781Y001081D01*
X003631Y001081D01*
X005581Y001081D02*
X005731Y001081D01*
X005581Y001081D02*
X005581Y001281D01*
X005731Y001281D01*
X006631Y001281D02*
X006781Y001281D01*
X006781Y001081D01*
X006631Y001081D01*
X007581Y001081D02*
X007731Y001081D01*
X007581Y001081D02*
X007581Y001281D01*
X007731Y001281D01*
X008631Y001281D02*
X008781Y001281D01*
X008781Y001081D01*
X008631Y001081D01*
X009581Y001081D02*
X009731Y001081D01*
X009581Y001081D02*
X009581Y001281D01*
X009731Y001281D01*
X010631Y001281D02*
X010781Y001281D01*
X010781Y001081D01*
X010631Y001081D01*
X011581Y001081D02*
X011731Y001081D01*
X011581Y001081D02*
X011581Y001281D01*
X011731Y001281D01*
X012631Y001281D02*
X012781Y001281D01*
X012781Y001081D01*
X012631Y001081D01*
X013581Y001081D02*
X013731Y001081D01*
X013581Y001081D02*
X013581Y001281D01*
X013731Y001281D01*
X014631Y001281D02*
X014781Y001281D01*
X014781Y001081D01*
X014631Y001081D01*
M02*
