G75*
G70*
%OFA0B0*%
%FSLAX24Y24*%
%IPPOS*%
%LPD*%
%AMOC8*
5,1,8,0,0,1.08239X$1,22.5*
%
%ADD10C,0.0070*%
%ADD11C,0.0040*%
%ADD12C,0.0004*%
D10*
X027775Y008111D02*
X028043Y008111D01*
X027909Y008111D02*
X027909Y008513D01*
X028043Y008379D01*
X028194Y008178D02*
X028194Y008111D01*
X028261Y008111D01*
X028261Y008178D01*
X028194Y008178D01*
X028427Y008111D02*
X028696Y008111D01*
X028562Y008111D02*
X028562Y008513D01*
X028696Y008379D01*
X028846Y008178D02*
X028846Y008111D01*
X028913Y008111D01*
X028913Y008178D01*
X028846Y008178D01*
X029080Y008111D02*
X029348Y008111D01*
X029214Y008111D02*
X029214Y008513D01*
X029348Y008379D01*
X029515Y008379D02*
X029649Y008111D01*
X029783Y008379D01*
X030379Y008379D02*
X030447Y008379D01*
X030581Y008245D01*
X030581Y008111D02*
X030581Y008379D01*
X030747Y008312D02*
X030747Y008245D01*
X031016Y008245D01*
X031016Y008312D02*
X030949Y008379D01*
X030814Y008379D01*
X030747Y008312D01*
X030814Y008111D02*
X030949Y008111D01*
X031016Y008178D01*
X031016Y008312D01*
X031172Y008379D02*
X031306Y008379D01*
X031239Y008446D02*
X031239Y008178D01*
X031172Y008111D01*
X031472Y008178D02*
X031539Y008111D01*
X031741Y008111D01*
X031741Y007976D02*
X031741Y008379D01*
X031539Y008379D01*
X031472Y008312D01*
X031472Y008178D01*
X031907Y008245D02*
X032109Y008245D01*
X032176Y008178D01*
X032109Y008111D01*
X031907Y008111D01*
X031907Y008312D01*
X031974Y008379D01*
X032109Y008379D01*
X032342Y008379D02*
X032544Y008379D01*
X032611Y008312D01*
X032611Y008178D01*
X032544Y008111D01*
X032342Y008111D01*
X032342Y008513D01*
X032777Y008379D02*
X032777Y008111D01*
X032777Y008312D02*
X033046Y008312D01*
X033046Y008379D02*
X032912Y008513D01*
X032777Y008379D01*
X033046Y008379D02*
X033046Y008111D01*
X033647Y008111D02*
X033647Y008513D01*
X033916Y008513D02*
X033647Y008111D01*
X033916Y008111D02*
X033916Y008513D01*
X034082Y008379D02*
X034082Y008111D01*
X034082Y008312D02*
X034351Y008312D01*
X034351Y008379D02*
X034217Y008513D01*
X034082Y008379D01*
X034351Y008379D02*
X034351Y008111D01*
X034517Y008178D02*
X034584Y008111D01*
X034719Y008111D01*
X034786Y008178D01*
X034786Y008446D01*
X034719Y008513D01*
X034584Y008513D01*
X034517Y008446D01*
D11*
X034683Y007859D02*
X034565Y007741D01*
X034565Y007505D01*
X034438Y007564D02*
X034379Y007623D01*
X034202Y007623D01*
X034202Y007682D02*
X034202Y007505D01*
X034379Y007505D01*
X034438Y007564D01*
X034565Y007682D02*
X034801Y007682D01*
X034801Y007741D02*
X034683Y007859D01*
X034801Y007741D02*
X034801Y007505D01*
X034379Y007741D02*
X034261Y007741D01*
X034202Y007682D01*
X034076Y007623D02*
X033958Y007741D01*
X033899Y007741D01*
X033774Y007682D02*
X033774Y007564D01*
X033715Y007505D01*
X033597Y007505D01*
X033538Y007564D01*
X033538Y007682D01*
X033597Y007741D01*
X033715Y007741D01*
X033774Y007682D01*
X034076Y007741D02*
X034076Y007505D01*
X033411Y007505D02*
X033411Y007741D01*
X033234Y007741D01*
X033175Y007682D01*
X033175Y007505D01*
X032686Y007505D02*
X032686Y007859D01*
X032509Y007859D01*
X032450Y007800D01*
X032450Y007741D01*
X032509Y007682D01*
X032686Y007682D01*
X032509Y007682D02*
X032450Y007623D01*
X032450Y007564D01*
X032509Y007505D01*
X032686Y007505D01*
X032324Y007564D02*
X032324Y007682D01*
X032265Y007741D01*
X032147Y007741D01*
X032088Y007682D01*
X032088Y007564D01*
X032147Y007505D01*
X032265Y007505D01*
X032324Y007564D01*
X031961Y007505D02*
X031961Y007741D01*
X031784Y007741D01*
X031725Y007682D01*
X031725Y007505D01*
X031599Y007505D02*
X031599Y007741D01*
X031422Y007741D01*
X031363Y007682D01*
X031363Y007505D01*
X031236Y007564D02*
X031236Y007682D01*
X031177Y007741D01*
X031059Y007741D01*
X031000Y007682D01*
X031000Y007623D01*
X031236Y007623D01*
X031236Y007564D02*
X031177Y007505D01*
X031059Y007505D01*
X030874Y007505D02*
X030756Y007505D01*
X030815Y007505D02*
X030815Y007859D01*
X030874Y007859D01*
X030632Y007859D02*
X030573Y007859D01*
X030573Y007505D01*
X030632Y007505D02*
X030514Y007505D01*
X030391Y007682D02*
X030155Y007682D01*
X030028Y007623D02*
X029792Y007859D01*
X029607Y007741D02*
X029489Y007741D01*
X029430Y007682D01*
X029430Y007505D01*
X029607Y007505D01*
X029666Y007564D01*
X029607Y007623D01*
X029430Y007623D01*
X029303Y007505D02*
X029303Y007741D01*
X029126Y007741D01*
X029067Y007682D01*
X029067Y007505D01*
X028941Y007564D02*
X028882Y007505D01*
X028705Y007505D01*
X028705Y007446D02*
X028705Y007741D01*
X028882Y007741D01*
X028941Y007682D01*
X028941Y007564D01*
X028823Y007387D02*
X028764Y007387D01*
X028705Y007446D01*
X028578Y007564D02*
X028519Y007623D01*
X028342Y007623D01*
X028342Y007682D02*
X028342Y007505D01*
X028519Y007505D01*
X028578Y007564D01*
X028519Y007741D02*
X028401Y007741D01*
X028342Y007682D01*
X028216Y007682D02*
X028157Y007741D01*
X027980Y007741D01*
X028039Y007623D02*
X028157Y007623D01*
X028216Y007682D01*
X028216Y007505D02*
X028039Y007505D01*
X027980Y007564D01*
X028039Y007623D01*
X029792Y007505D02*
X029969Y007682D01*
X030028Y007859D02*
X030028Y007505D01*
D12*
X035155Y007879D02*
X035155Y008430D01*
X035431Y008312D01*
X035707Y008430D01*
X035707Y008174D01*
X035825Y008056D01*
X036356Y008056D01*
X036455Y008154D01*
X036455Y009257D01*
X036356Y009355D01*
X035805Y009355D01*
X035707Y009257D01*
X035155Y009257D01*
X035155Y009255D02*
X035707Y009255D01*
X035707Y009257D02*
X035707Y009060D01*
X035431Y008942D01*
X035155Y009060D01*
X035155Y009552D01*
X035569Y009965D01*
X036592Y009965D01*
X037006Y009552D01*
X037006Y007879D01*
X036592Y007465D01*
X035569Y007465D01*
X035155Y007879D01*
X035156Y007878D02*
X037005Y007878D01*
X037006Y007881D02*
X035155Y007881D01*
X035155Y007883D02*
X037006Y007883D01*
X037006Y007886D02*
X035155Y007886D01*
X035155Y007888D02*
X037006Y007888D01*
X037006Y007891D02*
X035155Y007891D01*
X035155Y007893D02*
X037006Y007893D01*
X037006Y007896D02*
X035155Y007896D01*
X035155Y007898D02*
X037006Y007898D01*
X037006Y007900D02*
X035155Y007900D01*
X035155Y007903D02*
X037006Y007903D01*
X037006Y007905D02*
X035155Y007905D01*
X035155Y007908D02*
X037006Y007908D01*
X037006Y007910D02*
X035155Y007910D01*
X035155Y007913D02*
X037006Y007913D01*
X037006Y007915D02*
X035155Y007915D01*
X035155Y007918D02*
X037006Y007918D01*
X037006Y007920D02*
X035155Y007920D01*
X035155Y007923D02*
X037006Y007923D01*
X037006Y007925D02*
X035155Y007925D01*
X035155Y007928D02*
X037006Y007928D01*
X037006Y007930D02*
X035155Y007930D01*
X035155Y007933D02*
X037006Y007933D01*
X037006Y007935D02*
X035155Y007935D01*
X035155Y007938D02*
X037006Y007938D01*
X037006Y007940D02*
X035155Y007940D01*
X035155Y007943D02*
X037006Y007943D01*
X037006Y007945D02*
X035155Y007945D01*
X035155Y007948D02*
X037006Y007948D01*
X037006Y007950D02*
X035155Y007950D01*
X035155Y007953D02*
X037006Y007953D01*
X037006Y007955D02*
X035155Y007955D01*
X035155Y007958D02*
X037006Y007958D01*
X037006Y007960D02*
X035155Y007960D01*
X035155Y007962D02*
X037006Y007962D01*
X037006Y007965D02*
X035155Y007965D01*
X035155Y007967D02*
X037006Y007967D01*
X037006Y007970D02*
X035155Y007970D01*
X035155Y007972D02*
X037006Y007972D01*
X037006Y007975D02*
X035155Y007975D01*
X035155Y007977D02*
X037006Y007977D01*
X037006Y007980D02*
X035155Y007980D01*
X035155Y007982D02*
X037006Y007982D01*
X037006Y007985D02*
X035155Y007985D01*
X035155Y007987D02*
X037006Y007987D01*
X037006Y007990D02*
X035155Y007990D01*
X035155Y007992D02*
X037006Y007992D01*
X037006Y007995D02*
X035155Y007995D01*
X035155Y007997D02*
X037006Y007997D01*
X037006Y008000D02*
X035155Y008000D01*
X035155Y008002D02*
X037006Y008002D01*
X037006Y008005D02*
X035155Y008005D01*
X035155Y008007D02*
X037006Y008007D01*
X037006Y008010D02*
X035155Y008010D01*
X035155Y008012D02*
X037006Y008012D01*
X037006Y008015D02*
X035155Y008015D01*
X035155Y008017D02*
X037006Y008017D01*
X037006Y008020D02*
X035155Y008020D01*
X035155Y008022D02*
X037006Y008022D01*
X037006Y008024D02*
X035155Y008024D01*
X035155Y008027D02*
X037006Y008027D01*
X037006Y008029D02*
X035155Y008029D01*
X035155Y008032D02*
X037006Y008032D01*
X037006Y008034D02*
X035155Y008034D01*
X035155Y008037D02*
X037006Y008037D01*
X037006Y008039D02*
X035155Y008039D01*
X035155Y008042D02*
X037006Y008042D01*
X037006Y008044D02*
X035155Y008044D01*
X035155Y008047D02*
X037006Y008047D01*
X037006Y008049D02*
X035155Y008049D01*
X035155Y008052D02*
X037006Y008052D01*
X037006Y008054D02*
X035155Y008054D01*
X035155Y008057D02*
X035824Y008057D01*
X035821Y008059D02*
X035155Y008059D01*
X035155Y008062D02*
X035819Y008062D01*
X035816Y008064D02*
X035155Y008064D01*
X035155Y008067D02*
X035814Y008067D01*
X035811Y008069D02*
X035155Y008069D01*
X035155Y008072D02*
X035809Y008072D01*
X035807Y008074D02*
X035155Y008074D01*
X035155Y008077D02*
X035804Y008077D01*
X035802Y008079D02*
X035155Y008079D01*
X035155Y008082D02*
X035799Y008082D01*
X035797Y008084D02*
X035155Y008084D01*
X035155Y008086D02*
X035794Y008086D01*
X035792Y008089D02*
X035155Y008089D01*
X035155Y008091D02*
X035789Y008091D01*
X035787Y008094D02*
X035155Y008094D01*
X035155Y008096D02*
X035784Y008096D01*
X035782Y008099D02*
X035155Y008099D01*
X035155Y008101D02*
X035779Y008101D01*
X035777Y008104D02*
X035155Y008104D01*
X035155Y008106D02*
X035774Y008106D01*
X035772Y008109D02*
X035155Y008109D01*
X035155Y008111D02*
X035769Y008111D01*
X035767Y008114D02*
X035155Y008114D01*
X035155Y008116D02*
X035764Y008116D01*
X035762Y008119D02*
X035155Y008119D01*
X035155Y008121D02*
X035759Y008121D01*
X035757Y008124D02*
X035155Y008124D01*
X035155Y008126D02*
X035754Y008126D01*
X035752Y008129D02*
X035155Y008129D01*
X035155Y008131D02*
X035749Y008131D01*
X035747Y008134D02*
X035155Y008134D01*
X035155Y008136D02*
X035745Y008136D01*
X035742Y008139D02*
X035155Y008139D01*
X035155Y008141D02*
X035740Y008141D01*
X035737Y008144D02*
X035155Y008144D01*
X035155Y008146D02*
X035735Y008146D01*
X035732Y008149D02*
X035155Y008149D01*
X035155Y008151D02*
X035730Y008151D01*
X035727Y008153D02*
X035155Y008153D01*
X035155Y008156D02*
X035725Y008156D01*
X035722Y008158D02*
X035155Y008158D01*
X035155Y008161D02*
X035720Y008161D01*
X035717Y008163D02*
X035155Y008163D01*
X035155Y008166D02*
X035715Y008166D01*
X035712Y008168D02*
X035155Y008168D01*
X035155Y008171D02*
X035710Y008171D01*
X035707Y008173D02*
X035155Y008173D01*
X035155Y008176D02*
X035707Y008176D01*
X035707Y008178D02*
X035155Y008178D01*
X035155Y008181D02*
X035707Y008181D01*
X035707Y008183D02*
X035155Y008183D01*
X035155Y008186D02*
X035707Y008186D01*
X035707Y008188D02*
X035155Y008188D01*
X035155Y008191D02*
X035707Y008191D01*
X035707Y008193D02*
X035155Y008193D01*
X035155Y008196D02*
X035707Y008196D01*
X035707Y008198D02*
X035155Y008198D01*
X035155Y008201D02*
X035707Y008201D01*
X035707Y008203D02*
X035155Y008203D01*
X035155Y008206D02*
X035707Y008206D01*
X035707Y008208D02*
X035155Y008208D01*
X035155Y008211D02*
X035707Y008211D01*
X035707Y008213D02*
X035155Y008213D01*
X035155Y008215D02*
X035707Y008215D01*
X035707Y008218D02*
X035155Y008218D01*
X035155Y008220D02*
X035707Y008220D01*
X035707Y008223D02*
X035155Y008223D01*
X035155Y008225D02*
X035707Y008225D01*
X035707Y008228D02*
X035155Y008228D01*
X035155Y008230D02*
X035707Y008230D01*
X035707Y008233D02*
X035155Y008233D01*
X035155Y008235D02*
X035707Y008235D01*
X035707Y008238D02*
X035155Y008238D01*
X035155Y008240D02*
X035707Y008240D01*
X035707Y008243D02*
X035155Y008243D01*
X035155Y008245D02*
X035707Y008245D01*
X035707Y008248D02*
X035155Y008248D01*
X035155Y008250D02*
X035707Y008250D01*
X035707Y008253D02*
X035155Y008253D01*
X035155Y008255D02*
X035707Y008255D01*
X035707Y008258D02*
X035155Y008258D01*
X035155Y008260D02*
X035707Y008260D01*
X035707Y008263D02*
X035155Y008263D01*
X035155Y008265D02*
X035707Y008265D01*
X035707Y008268D02*
X035155Y008268D01*
X035155Y008270D02*
X035707Y008270D01*
X035707Y008273D02*
X035155Y008273D01*
X035155Y008275D02*
X035707Y008275D01*
X035707Y008277D02*
X035155Y008277D01*
X035155Y008280D02*
X035707Y008280D01*
X035707Y008282D02*
X035155Y008282D01*
X035155Y008285D02*
X035707Y008285D01*
X035707Y008287D02*
X035155Y008287D01*
X035155Y008290D02*
X035707Y008290D01*
X035707Y008292D02*
X035155Y008292D01*
X035155Y008295D02*
X035707Y008295D01*
X035707Y008297D02*
X035155Y008297D01*
X035155Y008300D02*
X035707Y008300D01*
X035707Y008302D02*
X035155Y008302D01*
X035155Y008305D02*
X035707Y008305D01*
X035707Y008307D02*
X035155Y008307D01*
X035155Y008310D02*
X035707Y008310D01*
X035707Y008312D02*
X035432Y008312D01*
X035430Y008312D02*
X035155Y008312D01*
X035155Y008315D02*
X035424Y008315D01*
X035419Y008317D02*
X035155Y008317D01*
X035155Y008320D02*
X035413Y008320D01*
X035407Y008322D02*
X035155Y008322D01*
X035155Y008325D02*
X035401Y008325D01*
X035395Y008327D02*
X035155Y008327D01*
X035155Y008330D02*
X035390Y008330D01*
X035384Y008332D02*
X035155Y008332D01*
X035155Y008335D02*
X035378Y008335D01*
X035372Y008337D02*
X035155Y008337D01*
X035155Y008339D02*
X035366Y008339D01*
X035361Y008342D02*
X035155Y008342D01*
X035155Y008344D02*
X035355Y008344D01*
X035349Y008347D02*
X035155Y008347D01*
X035155Y008349D02*
X035343Y008349D01*
X035337Y008352D02*
X035155Y008352D01*
X035155Y008354D02*
X035332Y008354D01*
X035326Y008357D02*
X035155Y008357D01*
X035155Y008359D02*
X035320Y008359D01*
X035314Y008362D02*
X035155Y008362D01*
X035155Y008364D02*
X035309Y008364D01*
X035303Y008367D02*
X035155Y008367D01*
X035155Y008369D02*
X035297Y008369D01*
X035291Y008372D02*
X035155Y008372D01*
X035155Y008374D02*
X035285Y008374D01*
X035280Y008377D02*
X035155Y008377D01*
X035155Y008379D02*
X035274Y008379D01*
X035268Y008382D02*
X035155Y008382D01*
X035155Y008384D02*
X035262Y008384D01*
X035256Y008387D02*
X035155Y008387D01*
X035155Y008389D02*
X035251Y008389D01*
X035245Y008392D02*
X035155Y008392D01*
X035155Y008394D02*
X035239Y008394D01*
X035233Y008397D02*
X035155Y008397D01*
X035155Y008399D02*
X035228Y008399D01*
X035222Y008401D02*
X035155Y008401D01*
X035155Y008404D02*
X035216Y008404D01*
X035210Y008406D02*
X035155Y008406D01*
X035155Y008409D02*
X035204Y008409D01*
X035199Y008411D02*
X035155Y008411D01*
X035155Y008414D02*
X035193Y008414D01*
X035187Y008416D02*
X035155Y008416D01*
X035155Y008419D02*
X035181Y008419D01*
X035175Y008421D02*
X035155Y008421D01*
X035155Y008424D02*
X035170Y008424D01*
X035164Y008426D02*
X035155Y008426D01*
X035155Y008429D02*
X035158Y008429D01*
X035438Y008315D02*
X035707Y008315D01*
X035707Y008317D02*
X035444Y008317D01*
X035449Y008320D02*
X035707Y008320D01*
X035707Y008322D02*
X035455Y008322D01*
X035461Y008325D02*
X035707Y008325D01*
X035707Y008327D02*
X035467Y008327D01*
X035472Y008330D02*
X035707Y008330D01*
X035707Y008332D02*
X035478Y008332D01*
X035484Y008335D02*
X035707Y008335D01*
X035707Y008337D02*
X035490Y008337D01*
X035496Y008339D02*
X035707Y008339D01*
X035707Y008342D02*
X035501Y008342D01*
X035507Y008344D02*
X035707Y008344D01*
X035707Y008347D02*
X035513Y008347D01*
X035519Y008349D02*
X035707Y008349D01*
X035707Y008352D02*
X035525Y008352D01*
X035530Y008354D02*
X035707Y008354D01*
X035707Y008357D02*
X035536Y008357D01*
X035542Y008359D02*
X035707Y008359D01*
X035707Y008362D02*
X035548Y008362D01*
X035553Y008364D02*
X035707Y008364D01*
X035707Y008367D02*
X035559Y008367D01*
X035565Y008369D02*
X035707Y008369D01*
X035707Y008372D02*
X035571Y008372D01*
X035577Y008374D02*
X035707Y008374D01*
X035707Y008377D02*
X035582Y008377D01*
X035588Y008379D02*
X035707Y008379D01*
X035707Y008382D02*
X035594Y008382D01*
X035600Y008384D02*
X035707Y008384D01*
X035707Y008387D02*
X035606Y008387D01*
X035611Y008389D02*
X035707Y008389D01*
X035707Y008392D02*
X035617Y008392D01*
X035623Y008394D02*
X035707Y008394D01*
X035707Y008397D02*
X035629Y008397D01*
X035634Y008399D02*
X035707Y008399D01*
X035707Y008401D02*
X035640Y008401D01*
X035646Y008404D02*
X035707Y008404D01*
X035707Y008406D02*
X035652Y008406D01*
X035658Y008409D02*
X035707Y008409D01*
X035707Y008411D02*
X035663Y008411D01*
X035669Y008414D02*
X035707Y008414D01*
X035707Y008416D02*
X035675Y008416D01*
X035681Y008419D02*
X035707Y008419D01*
X035707Y008421D02*
X035687Y008421D01*
X035692Y008424D02*
X035707Y008424D01*
X035707Y008426D02*
X035698Y008426D01*
X035704Y008429D02*
X035707Y008429D01*
X035478Y008962D02*
X035384Y008962D01*
X035389Y008960D02*
X035473Y008960D01*
X035467Y008957D02*
X035395Y008957D01*
X035401Y008955D02*
X035461Y008955D01*
X035455Y008952D02*
X035407Y008952D01*
X035413Y008950D02*
X035449Y008950D01*
X035444Y008947D02*
X035418Y008947D01*
X035424Y008945D02*
X035438Y008945D01*
X035432Y008942D02*
X035430Y008942D01*
X035378Y008965D02*
X035484Y008965D01*
X035490Y008967D02*
X035372Y008967D01*
X035366Y008969D02*
X035496Y008969D01*
X035502Y008972D02*
X035360Y008972D01*
X035355Y008974D02*
X035507Y008974D01*
X035513Y008977D02*
X035349Y008977D01*
X035343Y008979D02*
X035519Y008979D01*
X035525Y008982D02*
X035337Y008982D01*
X035332Y008984D02*
X035531Y008984D01*
X035536Y008987D02*
X035326Y008987D01*
X035320Y008989D02*
X035542Y008989D01*
X035548Y008992D02*
X035314Y008992D01*
X035308Y008994D02*
X035554Y008994D01*
X035559Y008997D02*
X035303Y008997D01*
X035297Y008999D02*
X035565Y008999D01*
X035571Y009002D02*
X035291Y009002D01*
X035285Y009004D02*
X035577Y009004D01*
X035583Y009007D02*
X035279Y009007D01*
X035274Y009009D02*
X035588Y009009D01*
X035594Y009012D02*
X035268Y009012D01*
X035262Y009014D02*
X035600Y009014D01*
X035606Y009017D02*
X035256Y009017D01*
X035251Y009019D02*
X035612Y009019D01*
X035617Y009022D02*
X035245Y009022D01*
X035239Y009024D02*
X035623Y009024D01*
X035629Y009027D02*
X035233Y009027D01*
X035227Y009029D02*
X035635Y009029D01*
X035640Y009031D02*
X035222Y009031D01*
X035216Y009034D02*
X035646Y009034D01*
X035652Y009036D02*
X035210Y009036D01*
X035204Y009039D02*
X035658Y009039D01*
X035664Y009041D02*
X035198Y009041D01*
X035193Y009044D02*
X035669Y009044D01*
X035675Y009046D02*
X035187Y009046D01*
X035181Y009049D02*
X035681Y009049D01*
X035687Y009051D02*
X035175Y009051D01*
X035169Y009054D02*
X035693Y009054D01*
X035698Y009056D02*
X035164Y009056D01*
X035158Y009059D02*
X035704Y009059D01*
X035707Y009061D02*
X035155Y009061D01*
X035155Y009064D02*
X035707Y009064D01*
X035707Y009066D02*
X035155Y009066D01*
X035155Y009069D02*
X035707Y009069D01*
X035707Y009071D02*
X035155Y009071D01*
X035155Y009074D02*
X035707Y009074D01*
X035707Y009076D02*
X035155Y009076D01*
X035155Y009079D02*
X035707Y009079D01*
X035707Y009081D02*
X035155Y009081D01*
X035155Y009084D02*
X035707Y009084D01*
X035707Y009086D02*
X035155Y009086D01*
X035155Y009089D02*
X035707Y009089D01*
X035707Y009091D02*
X035155Y009091D01*
X035155Y009094D02*
X035707Y009094D01*
X035707Y009096D02*
X035155Y009096D01*
X035155Y009098D02*
X035707Y009098D01*
X035707Y009101D02*
X035155Y009101D01*
X035155Y009103D02*
X035707Y009103D01*
X035707Y009106D02*
X035155Y009106D01*
X035155Y009108D02*
X035707Y009108D01*
X035707Y009111D02*
X035155Y009111D01*
X035155Y009113D02*
X035707Y009113D01*
X035707Y009116D02*
X035155Y009116D01*
X035155Y009118D02*
X035707Y009118D01*
X035707Y009121D02*
X035155Y009121D01*
X035155Y009123D02*
X035707Y009123D01*
X035707Y009126D02*
X035155Y009126D01*
X035155Y009128D02*
X035707Y009128D01*
X035707Y009131D02*
X035155Y009131D01*
X035155Y009133D02*
X035707Y009133D01*
X035707Y009136D02*
X035155Y009136D01*
X035155Y009138D02*
X035707Y009138D01*
X035707Y009141D02*
X035155Y009141D01*
X035155Y009143D02*
X035707Y009143D01*
X035707Y009146D02*
X035155Y009146D01*
X035155Y009148D02*
X035707Y009148D01*
X035707Y009151D02*
X035155Y009151D01*
X035155Y009153D02*
X035707Y009153D01*
X035707Y009156D02*
X035155Y009156D01*
X035155Y009158D02*
X035707Y009158D01*
X035707Y009160D02*
X035155Y009160D01*
X035155Y009163D02*
X035707Y009163D01*
X035707Y009165D02*
X035155Y009165D01*
X035155Y009168D02*
X035707Y009168D01*
X035707Y009170D02*
X035155Y009170D01*
X035155Y009173D02*
X035707Y009173D01*
X035707Y009175D02*
X035155Y009175D01*
X035155Y009178D02*
X035707Y009178D01*
X035707Y009180D02*
X035155Y009180D01*
X035155Y009183D02*
X035707Y009183D01*
X035707Y009185D02*
X035155Y009185D01*
X035155Y009188D02*
X035707Y009188D01*
X035707Y009190D02*
X035155Y009190D01*
X035155Y009193D02*
X035707Y009193D01*
X035707Y009195D02*
X035155Y009195D01*
X035155Y009198D02*
X035707Y009198D01*
X035707Y009200D02*
X035155Y009200D01*
X035155Y009203D02*
X035707Y009203D01*
X035707Y009205D02*
X035155Y009205D01*
X035155Y009208D02*
X035707Y009208D01*
X035707Y009210D02*
X035155Y009210D01*
X035155Y009213D02*
X035707Y009213D01*
X035707Y009215D02*
X035155Y009215D01*
X035155Y009218D02*
X035707Y009218D01*
X035707Y009220D02*
X035155Y009220D01*
X035155Y009222D02*
X035707Y009222D01*
X035707Y009225D02*
X035155Y009225D01*
X035155Y009227D02*
X035707Y009227D01*
X035707Y009230D02*
X035155Y009230D01*
X035155Y009232D02*
X035707Y009232D01*
X035707Y009235D02*
X035155Y009235D01*
X035155Y009237D02*
X035707Y009237D01*
X035707Y009240D02*
X035155Y009240D01*
X035155Y009242D02*
X035707Y009242D01*
X035707Y009245D02*
X035155Y009245D01*
X035155Y009247D02*
X035707Y009247D01*
X035707Y009250D02*
X035155Y009250D01*
X035155Y009252D02*
X035707Y009252D01*
X035710Y009260D02*
X035155Y009260D01*
X035155Y009262D02*
X035712Y009262D01*
X035715Y009265D02*
X035155Y009265D01*
X035155Y009267D02*
X035717Y009267D01*
X035720Y009270D02*
X035155Y009270D01*
X035155Y009272D02*
X035722Y009272D01*
X035724Y009275D02*
X035155Y009275D01*
X035155Y009277D02*
X035727Y009277D01*
X035729Y009280D02*
X035155Y009280D01*
X035155Y009282D02*
X035732Y009282D01*
X035734Y009284D02*
X035155Y009284D01*
X035155Y009287D02*
X035737Y009287D01*
X035739Y009289D02*
X035155Y009289D01*
X035155Y009292D02*
X035742Y009292D01*
X035744Y009294D02*
X035155Y009294D01*
X035155Y009297D02*
X035747Y009297D01*
X035749Y009299D02*
X035155Y009299D01*
X035155Y009302D02*
X035752Y009302D01*
X035754Y009304D02*
X035155Y009304D01*
X035155Y009307D02*
X035757Y009307D01*
X035759Y009309D02*
X035155Y009309D01*
X035155Y009312D02*
X035762Y009312D01*
X035764Y009314D02*
X035155Y009314D01*
X035155Y009317D02*
X035767Y009317D01*
X035769Y009319D02*
X035155Y009319D01*
X035155Y009322D02*
X035772Y009322D01*
X035774Y009324D02*
X035155Y009324D01*
X035155Y009327D02*
X035777Y009327D01*
X035779Y009329D02*
X035155Y009329D01*
X035155Y009332D02*
X035782Y009332D01*
X035784Y009334D02*
X035155Y009334D01*
X035155Y009337D02*
X035786Y009337D01*
X035789Y009339D02*
X035155Y009339D01*
X035155Y009342D02*
X035791Y009342D01*
X035794Y009344D02*
X035155Y009344D01*
X035155Y009346D02*
X035796Y009346D01*
X035799Y009349D02*
X035155Y009349D01*
X035155Y009351D02*
X035801Y009351D01*
X035804Y009354D02*
X035155Y009354D01*
X035155Y009356D02*
X037006Y009356D01*
X037006Y009354D02*
X036357Y009354D01*
X036360Y009351D02*
X037006Y009351D01*
X037006Y009349D02*
X036362Y009349D01*
X036365Y009346D02*
X037006Y009346D01*
X037006Y009344D02*
X036367Y009344D01*
X036370Y009342D02*
X037006Y009342D01*
X037006Y009339D02*
X036372Y009339D01*
X036375Y009337D02*
X037006Y009337D01*
X037006Y009334D02*
X036377Y009334D01*
X036380Y009332D02*
X037006Y009332D01*
X037006Y009329D02*
X036382Y009329D01*
X036385Y009327D02*
X037006Y009327D01*
X037006Y009324D02*
X036387Y009324D01*
X036390Y009322D02*
X037006Y009322D01*
X037006Y009319D02*
X036392Y009319D01*
X036395Y009317D02*
X037006Y009317D01*
X037006Y009314D02*
X036397Y009314D01*
X036400Y009312D02*
X037006Y009312D01*
X037006Y009309D02*
X036402Y009309D01*
X036405Y009307D02*
X037006Y009307D01*
X037006Y009304D02*
X036407Y009304D01*
X036409Y009302D02*
X037006Y009302D01*
X037006Y009299D02*
X036412Y009299D01*
X036414Y009297D02*
X037006Y009297D01*
X037006Y009294D02*
X036417Y009294D01*
X036419Y009292D02*
X037006Y009292D01*
X037006Y009289D02*
X036422Y009289D01*
X036424Y009287D02*
X037006Y009287D01*
X037006Y009284D02*
X036427Y009284D01*
X036429Y009282D02*
X037006Y009282D01*
X037006Y009280D02*
X036432Y009280D01*
X036434Y009277D02*
X037006Y009277D01*
X037006Y009275D02*
X036437Y009275D01*
X036439Y009272D02*
X037006Y009272D01*
X037006Y009270D02*
X036442Y009270D01*
X036444Y009267D02*
X037006Y009267D01*
X037006Y009265D02*
X036447Y009265D01*
X036449Y009262D02*
X037006Y009262D01*
X037006Y009260D02*
X036452Y009260D01*
X036454Y009257D02*
X037006Y009257D01*
X037006Y009255D02*
X036455Y009255D01*
X036455Y009252D02*
X037006Y009252D01*
X037006Y009250D02*
X036455Y009250D01*
X036455Y009247D02*
X037006Y009247D01*
X037006Y009245D02*
X036455Y009245D01*
X036455Y009242D02*
X037006Y009242D01*
X037006Y009240D02*
X036455Y009240D01*
X036455Y009237D02*
X037006Y009237D01*
X037006Y009235D02*
X036455Y009235D01*
X036455Y009232D02*
X037006Y009232D01*
X037006Y009230D02*
X036455Y009230D01*
X036455Y009227D02*
X037006Y009227D01*
X037006Y009225D02*
X036455Y009225D01*
X036455Y009222D02*
X037006Y009222D01*
X037006Y009220D02*
X036455Y009220D01*
X036455Y009218D02*
X037006Y009218D01*
X037006Y009215D02*
X036455Y009215D01*
X036455Y009213D02*
X037006Y009213D01*
X037006Y009210D02*
X036455Y009210D01*
X036455Y009208D02*
X037006Y009208D01*
X037006Y009205D02*
X036455Y009205D01*
X036455Y009203D02*
X037006Y009203D01*
X037006Y009200D02*
X036455Y009200D01*
X036455Y009198D02*
X037006Y009198D01*
X037006Y009195D02*
X036455Y009195D01*
X036455Y009193D02*
X037006Y009193D01*
X037006Y009190D02*
X036455Y009190D01*
X036455Y009188D02*
X037006Y009188D01*
X037006Y009185D02*
X036455Y009185D01*
X036455Y009183D02*
X037006Y009183D01*
X037006Y009180D02*
X036455Y009180D01*
X036455Y009178D02*
X037006Y009178D01*
X037006Y009175D02*
X036455Y009175D01*
X036455Y009173D02*
X037006Y009173D01*
X037006Y009170D02*
X036455Y009170D01*
X036455Y009168D02*
X037006Y009168D01*
X037006Y009165D02*
X036455Y009165D01*
X036455Y009163D02*
X037006Y009163D01*
X037006Y009160D02*
X036455Y009160D01*
X036455Y009158D02*
X037006Y009158D01*
X037006Y009156D02*
X036455Y009156D01*
X036455Y009153D02*
X037006Y009153D01*
X037006Y009151D02*
X036455Y009151D01*
X036455Y009148D02*
X037006Y009148D01*
X037006Y009146D02*
X036455Y009146D01*
X036455Y009143D02*
X037006Y009143D01*
X037006Y009141D02*
X036455Y009141D01*
X036455Y009138D02*
X037006Y009138D01*
X037006Y009136D02*
X036455Y009136D01*
X036455Y009133D02*
X037006Y009133D01*
X037006Y009131D02*
X036455Y009131D01*
X036455Y009128D02*
X037006Y009128D01*
X037006Y009126D02*
X036455Y009126D01*
X036455Y009123D02*
X037006Y009123D01*
X037006Y009121D02*
X036455Y009121D01*
X036455Y009118D02*
X037006Y009118D01*
X037006Y009116D02*
X036455Y009116D01*
X036455Y009113D02*
X037006Y009113D01*
X037006Y009111D02*
X036455Y009111D01*
X036455Y009108D02*
X037006Y009108D01*
X037006Y009106D02*
X036455Y009106D01*
X036455Y009103D02*
X037006Y009103D01*
X037006Y009101D02*
X036455Y009101D01*
X036455Y009098D02*
X037006Y009098D01*
X037006Y009096D02*
X036455Y009096D01*
X036455Y009094D02*
X037006Y009094D01*
X037006Y009091D02*
X036455Y009091D01*
X036455Y009089D02*
X037006Y009089D01*
X037006Y009086D02*
X036455Y009086D01*
X036455Y009084D02*
X037006Y009084D01*
X037006Y009081D02*
X036455Y009081D01*
X036455Y009079D02*
X037006Y009079D01*
X037006Y009076D02*
X036455Y009076D01*
X036455Y009074D02*
X037006Y009074D01*
X037006Y009071D02*
X036455Y009071D01*
X036455Y009069D02*
X037006Y009069D01*
X037006Y009066D02*
X036455Y009066D01*
X036455Y009064D02*
X037006Y009064D01*
X037006Y009061D02*
X036455Y009061D01*
X036455Y009059D02*
X037006Y009059D01*
X037006Y009056D02*
X036455Y009056D01*
X036455Y009054D02*
X037006Y009054D01*
X037006Y009051D02*
X036455Y009051D01*
X036455Y009049D02*
X037006Y009049D01*
X037006Y009046D02*
X036455Y009046D01*
X036455Y009044D02*
X037006Y009044D01*
X037006Y009041D02*
X036455Y009041D01*
X036455Y009039D02*
X037006Y009039D01*
X037006Y009036D02*
X036455Y009036D01*
X036455Y009034D02*
X037006Y009034D01*
X037006Y009031D02*
X036455Y009031D01*
X036455Y009029D02*
X037006Y009029D01*
X037006Y009027D02*
X036455Y009027D01*
X036455Y009024D02*
X037006Y009024D01*
X037006Y009022D02*
X036455Y009022D01*
X036455Y009019D02*
X037006Y009019D01*
X037006Y009017D02*
X036455Y009017D01*
X036455Y009014D02*
X037006Y009014D01*
X037006Y009012D02*
X036455Y009012D01*
X036455Y009009D02*
X037006Y009009D01*
X037006Y009007D02*
X036455Y009007D01*
X036455Y009004D02*
X037006Y009004D01*
X037006Y009002D02*
X036455Y009002D01*
X036455Y008999D02*
X037006Y008999D01*
X037006Y008997D02*
X036455Y008997D01*
X036455Y008994D02*
X037006Y008994D01*
X037006Y008992D02*
X036455Y008992D01*
X036455Y008989D02*
X037006Y008989D01*
X037006Y008987D02*
X036455Y008987D01*
X036455Y008984D02*
X037006Y008984D01*
X037006Y008982D02*
X036455Y008982D01*
X036455Y008979D02*
X037006Y008979D01*
X037006Y008977D02*
X036455Y008977D01*
X036455Y008974D02*
X037006Y008974D01*
X037006Y008972D02*
X036455Y008972D01*
X036455Y008969D02*
X037006Y008969D01*
X037006Y008967D02*
X036455Y008967D01*
X036455Y008965D02*
X037006Y008965D01*
X037006Y008962D02*
X036455Y008962D01*
X036455Y008960D02*
X037006Y008960D01*
X037006Y008957D02*
X036455Y008957D01*
X036455Y008955D02*
X037006Y008955D01*
X037006Y008952D02*
X036455Y008952D01*
X036455Y008950D02*
X037006Y008950D01*
X037006Y008947D02*
X036455Y008947D01*
X036455Y008945D02*
X037006Y008945D01*
X037006Y008942D02*
X036455Y008942D01*
X036455Y008940D02*
X037006Y008940D01*
X037006Y008937D02*
X036455Y008937D01*
X036455Y008935D02*
X037006Y008935D01*
X037006Y008932D02*
X036455Y008932D01*
X036455Y008930D02*
X037006Y008930D01*
X037006Y008927D02*
X036455Y008927D01*
X036455Y008925D02*
X037006Y008925D01*
X037006Y008922D02*
X036455Y008922D01*
X036455Y008920D02*
X037006Y008920D01*
X037006Y008917D02*
X036455Y008917D01*
X036455Y008915D02*
X037006Y008915D01*
X037006Y008912D02*
X036455Y008912D01*
X036455Y008910D02*
X037006Y008910D01*
X037006Y008907D02*
X036455Y008907D01*
X036455Y008905D02*
X037006Y008905D01*
X037006Y008903D02*
X036455Y008903D01*
X036455Y008900D02*
X037006Y008900D01*
X037006Y008898D02*
X036455Y008898D01*
X036455Y008895D02*
X037006Y008895D01*
X037006Y008893D02*
X036455Y008893D01*
X036455Y008890D02*
X037006Y008890D01*
X037006Y008888D02*
X036455Y008888D01*
X036455Y008885D02*
X037006Y008885D01*
X037006Y008883D02*
X036455Y008883D01*
X036455Y008880D02*
X037006Y008880D01*
X037006Y008878D02*
X036455Y008878D01*
X036455Y008875D02*
X037006Y008875D01*
X037006Y008873D02*
X036455Y008873D01*
X036455Y008870D02*
X037006Y008870D01*
X037006Y008868D02*
X036455Y008868D01*
X036455Y008865D02*
X037006Y008865D01*
X037006Y008863D02*
X036455Y008863D01*
X036455Y008860D02*
X037006Y008860D01*
X037006Y008858D02*
X036455Y008858D01*
X036455Y008855D02*
X037006Y008855D01*
X037006Y008853D02*
X036455Y008853D01*
X036455Y008850D02*
X037006Y008850D01*
X037006Y008848D02*
X036455Y008848D01*
X036455Y008845D02*
X037006Y008845D01*
X037006Y008843D02*
X036455Y008843D01*
X036455Y008841D02*
X037006Y008841D01*
X037006Y008838D02*
X036455Y008838D01*
X036455Y008836D02*
X037006Y008836D01*
X037006Y008833D02*
X036455Y008833D01*
X036455Y008831D02*
X037006Y008831D01*
X037006Y008828D02*
X036455Y008828D01*
X036455Y008826D02*
X037006Y008826D01*
X037006Y008823D02*
X036455Y008823D01*
X036455Y008821D02*
X037006Y008821D01*
X037006Y008818D02*
X036455Y008818D01*
X036455Y008816D02*
X037006Y008816D01*
X037006Y008813D02*
X036455Y008813D01*
X036455Y008811D02*
X037006Y008811D01*
X037006Y008808D02*
X036455Y008808D01*
X036455Y008806D02*
X037006Y008806D01*
X037006Y008803D02*
X036455Y008803D01*
X036455Y008801D02*
X037006Y008801D01*
X037006Y008798D02*
X036455Y008798D01*
X036455Y008796D02*
X037006Y008796D01*
X037006Y008793D02*
X036455Y008793D01*
X036455Y008791D02*
X037006Y008791D01*
X037006Y008788D02*
X036455Y008788D01*
X036455Y008786D02*
X037006Y008786D01*
X037006Y008783D02*
X036455Y008783D01*
X036455Y008781D02*
X037006Y008781D01*
X037006Y008779D02*
X036455Y008779D01*
X036455Y008776D02*
X037006Y008776D01*
X037006Y008774D02*
X036455Y008774D01*
X036455Y008771D02*
X037006Y008771D01*
X037006Y008769D02*
X036455Y008769D01*
X036455Y008766D02*
X037006Y008766D01*
X037006Y008764D02*
X036455Y008764D01*
X036455Y008761D02*
X037006Y008761D01*
X037006Y008759D02*
X036455Y008759D01*
X036455Y008756D02*
X037006Y008756D01*
X037006Y008754D02*
X036455Y008754D01*
X036455Y008751D02*
X037006Y008751D01*
X037006Y008749D02*
X036455Y008749D01*
X036455Y008746D02*
X037006Y008746D01*
X037006Y008744D02*
X036455Y008744D01*
X036455Y008741D02*
X037006Y008741D01*
X037006Y008739D02*
X036455Y008739D01*
X036455Y008736D02*
X037006Y008736D01*
X037006Y008734D02*
X036455Y008734D01*
X036455Y008731D02*
X037006Y008731D01*
X037006Y008729D02*
X036455Y008729D01*
X036455Y008726D02*
X037006Y008726D01*
X037006Y008724D02*
X036455Y008724D01*
X036455Y008721D02*
X037006Y008721D01*
X037006Y008719D02*
X036455Y008719D01*
X036455Y008716D02*
X037006Y008716D01*
X037006Y008714D02*
X036455Y008714D01*
X036455Y008712D02*
X037006Y008712D01*
X037006Y008709D02*
X036455Y008709D01*
X036455Y008707D02*
X037006Y008707D01*
X037006Y008704D02*
X036455Y008704D01*
X036455Y008702D02*
X037006Y008702D01*
X037006Y008699D02*
X036455Y008699D01*
X036455Y008697D02*
X037006Y008697D01*
X037006Y008694D02*
X036455Y008694D01*
X036455Y008692D02*
X037006Y008692D01*
X037006Y008689D02*
X036455Y008689D01*
X036455Y008687D02*
X037006Y008687D01*
X037006Y008684D02*
X036455Y008684D01*
X036455Y008682D02*
X037006Y008682D01*
X037006Y008679D02*
X036455Y008679D01*
X036455Y008677D02*
X037006Y008677D01*
X037006Y008674D02*
X036455Y008674D01*
X036455Y008672D02*
X037006Y008672D01*
X037006Y008669D02*
X036455Y008669D01*
X036455Y008667D02*
X037006Y008667D01*
X037006Y008664D02*
X036455Y008664D01*
X036455Y008662D02*
X037006Y008662D01*
X037006Y008659D02*
X036455Y008659D01*
X036455Y008657D02*
X037006Y008657D01*
X037006Y008654D02*
X036455Y008654D01*
X036455Y008652D02*
X037006Y008652D01*
X037006Y008650D02*
X036455Y008650D01*
X036455Y008647D02*
X037006Y008647D01*
X037006Y008645D02*
X036455Y008645D01*
X036455Y008642D02*
X037006Y008642D01*
X037006Y008640D02*
X036455Y008640D01*
X036455Y008637D02*
X037006Y008637D01*
X037006Y008635D02*
X036455Y008635D01*
X036455Y008632D02*
X037006Y008632D01*
X037006Y008630D02*
X036455Y008630D01*
X036455Y008627D02*
X037006Y008627D01*
X037006Y008625D02*
X036455Y008625D01*
X036455Y008622D02*
X037006Y008622D01*
X037006Y008620D02*
X036455Y008620D01*
X036455Y008617D02*
X037006Y008617D01*
X037006Y008615D02*
X036455Y008615D01*
X036455Y008612D02*
X037006Y008612D01*
X037006Y008610D02*
X036455Y008610D01*
X036455Y008607D02*
X037006Y008607D01*
X037006Y008605D02*
X036455Y008605D01*
X036455Y008602D02*
X037006Y008602D01*
X037006Y008600D02*
X036455Y008600D01*
X036455Y008597D02*
X037006Y008597D01*
X037006Y008595D02*
X036455Y008595D01*
X036455Y008592D02*
X037006Y008592D01*
X037006Y008590D02*
X036455Y008590D01*
X036455Y008588D02*
X037006Y008588D01*
X037006Y008585D02*
X036455Y008585D01*
X036455Y008583D02*
X037006Y008583D01*
X037006Y008580D02*
X036455Y008580D01*
X036455Y008578D02*
X037006Y008578D01*
X037006Y008575D02*
X036455Y008575D01*
X036455Y008573D02*
X037006Y008573D01*
X037006Y008570D02*
X036455Y008570D01*
X036455Y008568D02*
X037006Y008568D01*
X037006Y008565D02*
X036455Y008565D01*
X036455Y008563D02*
X037006Y008563D01*
X037006Y008560D02*
X036455Y008560D01*
X036455Y008558D02*
X037006Y008558D01*
X037006Y008555D02*
X036455Y008555D01*
X036455Y008553D02*
X037006Y008553D01*
X037006Y008550D02*
X036455Y008550D01*
X036455Y008548D02*
X037006Y008548D01*
X037006Y008545D02*
X036455Y008545D01*
X036455Y008543D02*
X037006Y008543D01*
X037006Y008540D02*
X036455Y008540D01*
X036455Y008538D02*
X037006Y008538D01*
X037006Y008535D02*
X036455Y008535D01*
X036455Y008533D02*
X037006Y008533D01*
X037006Y008530D02*
X036455Y008530D01*
X036455Y008528D02*
X037006Y008528D01*
X037006Y008526D02*
X036455Y008526D01*
X036455Y008523D02*
X037006Y008523D01*
X037006Y008521D02*
X036455Y008521D01*
X036455Y008518D02*
X037006Y008518D01*
X037006Y008516D02*
X036455Y008516D01*
X036455Y008513D02*
X037006Y008513D01*
X037006Y008511D02*
X036455Y008511D01*
X036455Y008508D02*
X037006Y008508D01*
X037006Y008506D02*
X036455Y008506D01*
X036455Y008503D02*
X037006Y008503D01*
X037006Y008501D02*
X036455Y008501D01*
X036455Y008498D02*
X037006Y008498D01*
X037006Y008496D02*
X036455Y008496D01*
X036455Y008493D02*
X037006Y008493D01*
X037006Y008491D02*
X036455Y008491D01*
X036455Y008488D02*
X037006Y008488D01*
X037006Y008486D02*
X036455Y008486D01*
X036455Y008483D02*
X037006Y008483D01*
X037006Y008481D02*
X036455Y008481D01*
X036455Y008478D02*
X037006Y008478D01*
X037006Y008476D02*
X036455Y008476D01*
X036455Y008473D02*
X037006Y008473D01*
X037006Y008471D02*
X036455Y008471D01*
X036455Y008468D02*
X037006Y008468D01*
X037006Y008466D02*
X036455Y008466D01*
X036455Y008464D02*
X037006Y008464D01*
X037006Y008461D02*
X036455Y008461D01*
X036455Y008459D02*
X037006Y008459D01*
X037006Y008456D02*
X036455Y008456D01*
X036455Y008454D02*
X037006Y008454D01*
X037006Y008451D02*
X036455Y008451D01*
X036455Y008449D02*
X037006Y008449D01*
X037006Y008446D02*
X036455Y008446D01*
X036455Y008444D02*
X037006Y008444D01*
X037006Y008441D02*
X036455Y008441D01*
X036455Y008439D02*
X037006Y008439D01*
X037006Y008436D02*
X036455Y008436D01*
X036455Y008434D02*
X037006Y008434D01*
X037006Y008431D02*
X036455Y008431D01*
X036455Y008429D02*
X037006Y008429D01*
X037006Y008426D02*
X036455Y008426D01*
X036455Y008424D02*
X037006Y008424D01*
X037006Y008421D02*
X036455Y008421D01*
X036455Y008419D02*
X037006Y008419D01*
X037006Y008416D02*
X036455Y008416D01*
X036455Y008414D02*
X037006Y008414D01*
X037006Y008411D02*
X036455Y008411D01*
X036455Y008409D02*
X037006Y008409D01*
X037006Y008406D02*
X036455Y008406D01*
X036455Y008404D02*
X037006Y008404D01*
X037006Y008401D02*
X036455Y008401D01*
X036455Y008399D02*
X037006Y008399D01*
X037006Y008397D02*
X036455Y008397D01*
X036455Y008394D02*
X037006Y008394D01*
X037006Y008392D02*
X036455Y008392D01*
X036455Y008389D02*
X037006Y008389D01*
X037006Y008387D02*
X036455Y008387D01*
X036455Y008384D02*
X037006Y008384D01*
X037006Y008382D02*
X036455Y008382D01*
X036455Y008379D02*
X037006Y008379D01*
X037006Y008377D02*
X036455Y008377D01*
X036455Y008374D02*
X037006Y008374D01*
X037006Y008372D02*
X036455Y008372D01*
X036455Y008369D02*
X037006Y008369D01*
X037006Y008367D02*
X036455Y008367D01*
X036455Y008364D02*
X037006Y008364D01*
X037006Y008362D02*
X036455Y008362D01*
X036455Y008359D02*
X037006Y008359D01*
X037006Y008357D02*
X036455Y008357D01*
X036455Y008354D02*
X037006Y008354D01*
X037006Y008352D02*
X036455Y008352D01*
X036455Y008349D02*
X037006Y008349D01*
X037006Y008347D02*
X036455Y008347D01*
X036455Y008344D02*
X037006Y008344D01*
X037006Y008342D02*
X036455Y008342D01*
X036455Y008339D02*
X037006Y008339D01*
X037006Y008337D02*
X036455Y008337D01*
X036455Y008335D02*
X037006Y008335D01*
X037006Y008332D02*
X036455Y008332D01*
X036455Y008330D02*
X037006Y008330D01*
X037006Y008327D02*
X036455Y008327D01*
X036455Y008325D02*
X037006Y008325D01*
X037006Y008322D02*
X036455Y008322D01*
X036455Y008320D02*
X037006Y008320D01*
X037006Y008317D02*
X036455Y008317D01*
X036455Y008315D02*
X037006Y008315D01*
X037006Y008312D02*
X036455Y008312D01*
X036455Y008310D02*
X037006Y008310D01*
X037006Y008307D02*
X036455Y008307D01*
X036455Y008305D02*
X037006Y008305D01*
X037006Y008302D02*
X036455Y008302D01*
X036455Y008300D02*
X037006Y008300D01*
X037006Y008297D02*
X036455Y008297D01*
X036455Y008295D02*
X037006Y008295D01*
X037006Y008292D02*
X036455Y008292D01*
X036455Y008290D02*
X037006Y008290D01*
X037006Y008287D02*
X036455Y008287D01*
X036455Y008285D02*
X037006Y008285D01*
X037006Y008282D02*
X036455Y008282D01*
X036455Y008280D02*
X037006Y008280D01*
X037006Y008277D02*
X036455Y008277D01*
X036455Y008275D02*
X037006Y008275D01*
X037006Y008273D02*
X036455Y008273D01*
X036455Y008270D02*
X037006Y008270D01*
X037006Y008268D02*
X036455Y008268D01*
X036455Y008265D02*
X037006Y008265D01*
X037006Y008263D02*
X036455Y008263D01*
X036455Y008260D02*
X037006Y008260D01*
X037006Y008258D02*
X036455Y008258D01*
X036455Y008255D02*
X037006Y008255D01*
X037006Y008253D02*
X036455Y008253D01*
X036455Y008250D02*
X037006Y008250D01*
X037006Y008248D02*
X036455Y008248D01*
X036455Y008245D02*
X037006Y008245D01*
X037006Y008243D02*
X036455Y008243D01*
X036455Y008240D02*
X037006Y008240D01*
X037006Y008238D02*
X036455Y008238D01*
X036455Y008235D02*
X037006Y008235D01*
X037006Y008233D02*
X036455Y008233D01*
X036455Y008230D02*
X037006Y008230D01*
X037006Y008228D02*
X036455Y008228D01*
X036455Y008225D02*
X037006Y008225D01*
X037006Y008223D02*
X036455Y008223D01*
X036455Y008220D02*
X037006Y008220D01*
X037006Y008218D02*
X036455Y008218D01*
X036455Y008215D02*
X037006Y008215D01*
X037006Y008213D02*
X036455Y008213D01*
X036455Y008211D02*
X037006Y008211D01*
X037006Y008208D02*
X036455Y008208D01*
X036455Y008206D02*
X037006Y008206D01*
X037006Y008203D02*
X036455Y008203D01*
X036455Y008201D02*
X037006Y008201D01*
X037006Y008198D02*
X036455Y008198D01*
X036455Y008196D02*
X037006Y008196D01*
X037006Y008193D02*
X036455Y008193D01*
X036455Y008191D02*
X037006Y008191D01*
X037006Y008188D02*
X036455Y008188D01*
X036455Y008186D02*
X037006Y008186D01*
X037006Y008183D02*
X036455Y008183D01*
X036455Y008181D02*
X037006Y008181D01*
X037006Y008178D02*
X036455Y008178D01*
X036455Y008176D02*
X037006Y008176D01*
X037006Y008173D02*
X036455Y008173D01*
X036455Y008171D02*
X037006Y008171D01*
X037006Y008168D02*
X036455Y008168D01*
X036455Y008166D02*
X037006Y008166D01*
X037006Y008163D02*
X036455Y008163D01*
X036455Y008161D02*
X037006Y008161D01*
X037006Y008158D02*
X036455Y008158D01*
X036455Y008156D02*
X037006Y008156D01*
X037006Y008153D02*
X036454Y008153D01*
X036451Y008151D02*
X037006Y008151D01*
X037006Y008149D02*
X036449Y008149D01*
X036446Y008146D02*
X037006Y008146D01*
X037006Y008144D02*
X036444Y008144D01*
X036441Y008141D02*
X037006Y008141D01*
X037006Y008139D02*
X036439Y008139D01*
X036436Y008136D02*
X037006Y008136D01*
X037006Y008134D02*
X036434Y008134D01*
X036431Y008131D02*
X037006Y008131D01*
X037006Y008129D02*
X036429Y008129D01*
X036426Y008126D02*
X037006Y008126D01*
X037006Y008124D02*
X036424Y008124D01*
X036422Y008121D02*
X037006Y008121D01*
X037006Y008119D02*
X036419Y008119D01*
X036417Y008116D02*
X037006Y008116D01*
X037006Y008114D02*
X036414Y008114D01*
X036412Y008111D02*
X037006Y008111D01*
X037006Y008109D02*
X036409Y008109D01*
X036407Y008106D02*
X037006Y008106D01*
X037006Y008104D02*
X036404Y008104D01*
X036402Y008101D02*
X037006Y008101D01*
X037006Y008099D02*
X036399Y008099D01*
X036397Y008096D02*
X037006Y008096D01*
X037006Y008094D02*
X036394Y008094D01*
X036392Y008091D02*
X037006Y008091D01*
X037006Y008089D02*
X036389Y008089D01*
X036387Y008086D02*
X037006Y008086D01*
X037006Y008084D02*
X036384Y008084D01*
X036382Y008082D02*
X037006Y008082D01*
X037006Y008079D02*
X036379Y008079D01*
X036377Y008077D02*
X037006Y008077D01*
X037006Y008074D02*
X036374Y008074D01*
X036372Y008072D02*
X037006Y008072D01*
X037006Y008069D02*
X036369Y008069D01*
X036367Y008067D02*
X037006Y008067D01*
X037006Y008064D02*
X036364Y008064D01*
X036362Y008062D02*
X037006Y008062D01*
X037006Y008059D02*
X036360Y008059D01*
X036357Y008057D02*
X037006Y008057D01*
X037003Y007876D02*
X035159Y007876D01*
X035161Y007873D02*
X037000Y007873D01*
X036998Y007871D02*
X035163Y007871D01*
X035166Y007868D02*
X036995Y007868D01*
X036993Y007866D02*
X035168Y007866D01*
X035171Y007863D02*
X036990Y007863D01*
X036988Y007861D02*
X035173Y007861D01*
X035176Y007858D02*
X036985Y007858D01*
X036983Y007856D02*
X035178Y007856D01*
X035181Y007853D02*
X036980Y007853D01*
X036978Y007851D02*
X035183Y007851D01*
X035186Y007848D02*
X036975Y007848D01*
X036973Y007846D02*
X035188Y007846D01*
X035191Y007843D02*
X036971Y007843D01*
X036968Y007841D02*
X035193Y007841D01*
X035196Y007838D02*
X036966Y007838D01*
X036963Y007836D02*
X035198Y007836D01*
X035201Y007834D02*
X036961Y007834D01*
X036958Y007831D02*
X035203Y007831D01*
X035206Y007829D02*
X036956Y007829D01*
X036953Y007826D02*
X035208Y007826D01*
X035211Y007824D02*
X036951Y007824D01*
X036948Y007821D02*
X035213Y007821D01*
X035216Y007819D02*
X036946Y007819D01*
X036943Y007816D02*
X035218Y007816D01*
X035221Y007814D02*
X036941Y007814D01*
X036938Y007811D02*
X035223Y007811D01*
X035225Y007809D02*
X036936Y007809D01*
X036933Y007806D02*
X035228Y007806D01*
X035230Y007804D02*
X036931Y007804D01*
X036928Y007801D02*
X035233Y007801D01*
X035235Y007799D02*
X036926Y007799D01*
X036923Y007796D02*
X035238Y007796D01*
X035240Y007794D02*
X036921Y007794D01*
X036918Y007791D02*
X035243Y007791D01*
X035245Y007789D02*
X036916Y007789D01*
X036913Y007786D02*
X035248Y007786D01*
X035250Y007784D02*
X036911Y007784D01*
X036909Y007781D02*
X035253Y007781D01*
X035255Y007779D02*
X036906Y007779D01*
X036904Y007776D02*
X035258Y007776D01*
X035260Y007774D02*
X036901Y007774D01*
X036899Y007771D02*
X035263Y007771D01*
X035265Y007769D02*
X036896Y007769D01*
X036894Y007767D02*
X035268Y007767D01*
X035270Y007764D02*
X036891Y007764D01*
X036889Y007762D02*
X035273Y007762D01*
X035275Y007759D02*
X036886Y007759D01*
X036884Y007757D02*
X035278Y007757D01*
X035280Y007754D02*
X036881Y007754D01*
X036879Y007752D02*
X035283Y007752D01*
X035285Y007749D02*
X036876Y007749D01*
X036874Y007747D02*
X035287Y007747D01*
X035290Y007744D02*
X036871Y007744D01*
X036869Y007742D02*
X035292Y007742D01*
X035295Y007739D02*
X036866Y007739D01*
X036864Y007737D02*
X035297Y007737D01*
X035300Y007734D02*
X036861Y007734D01*
X036859Y007732D02*
X035302Y007732D01*
X035305Y007729D02*
X036856Y007729D01*
X036854Y007727D02*
X035307Y007727D01*
X035310Y007724D02*
X036851Y007724D01*
X036849Y007722D02*
X035312Y007722D01*
X035315Y007719D02*
X036846Y007719D01*
X036844Y007717D02*
X035317Y007717D01*
X035320Y007714D02*
X036842Y007714D01*
X036839Y007712D02*
X035322Y007712D01*
X035325Y007709D02*
X036837Y007709D01*
X036834Y007707D02*
X035327Y007707D01*
X035330Y007705D02*
X036832Y007705D01*
X036829Y007702D02*
X035332Y007702D01*
X035335Y007700D02*
X036827Y007700D01*
X036824Y007697D02*
X035337Y007697D01*
X035340Y007695D02*
X036822Y007695D01*
X036819Y007692D02*
X035342Y007692D01*
X035345Y007690D02*
X036817Y007690D01*
X036814Y007687D02*
X035347Y007687D01*
X035349Y007685D02*
X036812Y007685D01*
X036809Y007682D02*
X035352Y007682D01*
X035354Y007680D02*
X036807Y007680D01*
X036804Y007677D02*
X035357Y007677D01*
X035359Y007675D02*
X036802Y007675D01*
X036799Y007672D02*
X035362Y007672D01*
X035364Y007670D02*
X036797Y007670D01*
X036794Y007667D02*
X035367Y007667D01*
X035369Y007665D02*
X036792Y007665D01*
X036789Y007662D02*
X035372Y007662D01*
X035374Y007660D02*
X036787Y007660D01*
X036784Y007657D02*
X035377Y007657D01*
X035379Y007655D02*
X036782Y007655D01*
X036780Y007652D02*
X035382Y007652D01*
X035384Y007650D02*
X036777Y007650D01*
X036775Y007647D02*
X035387Y007647D01*
X035389Y007645D02*
X036772Y007645D01*
X036770Y007643D02*
X035392Y007643D01*
X035394Y007640D02*
X036767Y007640D01*
X036765Y007638D02*
X035397Y007638D01*
X035399Y007635D02*
X036762Y007635D01*
X036760Y007633D02*
X035402Y007633D01*
X035404Y007630D02*
X036757Y007630D01*
X036755Y007628D02*
X035407Y007628D01*
X035409Y007625D02*
X036752Y007625D01*
X036750Y007623D02*
X035411Y007623D01*
X035414Y007620D02*
X036747Y007620D01*
X036745Y007618D02*
X035416Y007618D01*
X035419Y007615D02*
X036742Y007615D01*
X036740Y007613D02*
X035421Y007613D01*
X035424Y007610D02*
X036737Y007610D01*
X036735Y007608D02*
X035426Y007608D01*
X035429Y007605D02*
X036732Y007605D01*
X036730Y007603D02*
X035431Y007603D01*
X035434Y007600D02*
X036727Y007600D01*
X036725Y007598D02*
X035436Y007598D01*
X035439Y007595D02*
X036722Y007595D01*
X036720Y007593D02*
X035441Y007593D01*
X035444Y007590D02*
X036718Y007590D01*
X036715Y007588D02*
X035446Y007588D01*
X035449Y007585D02*
X036713Y007585D01*
X036710Y007583D02*
X035451Y007583D01*
X035454Y007581D02*
X036708Y007581D01*
X036705Y007578D02*
X035456Y007578D01*
X035459Y007576D02*
X036703Y007576D01*
X036700Y007573D02*
X035461Y007573D01*
X035464Y007571D02*
X036698Y007571D01*
X036695Y007568D02*
X035466Y007568D01*
X035469Y007566D02*
X036693Y007566D01*
X036690Y007563D02*
X035471Y007563D01*
X035474Y007561D02*
X036688Y007561D01*
X036685Y007558D02*
X035476Y007558D01*
X035478Y007556D02*
X036683Y007556D01*
X036680Y007553D02*
X035481Y007553D01*
X035483Y007551D02*
X036678Y007551D01*
X036675Y007548D02*
X035486Y007548D01*
X035488Y007546D02*
X036673Y007546D01*
X036670Y007543D02*
X035491Y007543D01*
X035493Y007541D02*
X036668Y007541D01*
X036665Y007538D02*
X035496Y007538D01*
X035498Y007536D02*
X036663Y007536D01*
X036660Y007533D02*
X035501Y007533D01*
X035503Y007531D02*
X036658Y007531D01*
X036656Y007528D02*
X035506Y007528D01*
X035508Y007526D02*
X036653Y007526D01*
X036651Y007523D02*
X035511Y007523D01*
X035513Y007521D02*
X036648Y007521D01*
X036646Y007519D02*
X035516Y007519D01*
X035518Y007516D02*
X036643Y007516D01*
X036641Y007514D02*
X035521Y007514D01*
X035523Y007511D02*
X036638Y007511D01*
X036636Y007509D02*
X035526Y007509D01*
X035528Y007506D02*
X036633Y007506D01*
X036631Y007504D02*
X035531Y007504D01*
X035533Y007501D02*
X036628Y007501D01*
X036626Y007499D02*
X035536Y007499D01*
X035538Y007496D02*
X036623Y007496D01*
X036621Y007494D02*
X035540Y007494D01*
X035543Y007491D02*
X036618Y007491D01*
X036616Y007489D02*
X035545Y007489D01*
X035548Y007486D02*
X036613Y007486D01*
X036611Y007484D02*
X035550Y007484D01*
X035553Y007481D02*
X036608Y007481D01*
X036606Y007479D02*
X035555Y007479D01*
X035558Y007476D02*
X036603Y007476D01*
X036601Y007474D02*
X035560Y007474D01*
X035563Y007471D02*
X036598Y007471D01*
X036596Y007469D02*
X035565Y007469D01*
X035568Y007466D02*
X036594Y007466D01*
X037006Y009359D02*
X035155Y009359D01*
X035155Y009361D02*
X037006Y009361D01*
X037006Y009364D02*
X035155Y009364D01*
X035155Y009366D02*
X037006Y009366D01*
X037006Y009369D02*
X035155Y009369D01*
X035155Y009371D02*
X037006Y009371D01*
X037006Y009374D02*
X035155Y009374D01*
X035155Y009376D02*
X037006Y009376D01*
X037006Y009379D02*
X035155Y009379D01*
X035155Y009381D02*
X037006Y009381D01*
X037006Y009384D02*
X035155Y009384D01*
X035155Y009386D02*
X037006Y009386D01*
X037006Y009389D02*
X035155Y009389D01*
X035155Y009391D02*
X037006Y009391D01*
X037006Y009394D02*
X035155Y009394D01*
X035155Y009396D02*
X037006Y009396D01*
X037006Y009399D02*
X035155Y009399D01*
X035155Y009401D02*
X037006Y009401D01*
X037006Y009404D02*
X035155Y009404D01*
X035155Y009406D02*
X037006Y009406D01*
X037006Y009409D02*
X035155Y009409D01*
X035155Y009411D02*
X037006Y009411D01*
X037006Y009413D02*
X035155Y009413D01*
X035155Y009416D02*
X037006Y009416D01*
X037006Y009418D02*
X035155Y009418D01*
X035155Y009421D02*
X037006Y009421D01*
X037006Y009423D02*
X035155Y009423D01*
X035155Y009426D02*
X037006Y009426D01*
X037006Y009428D02*
X035155Y009428D01*
X035155Y009431D02*
X037006Y009431D01*
X037006Y009433D02*
X035155Y009433D01*
X035155Y009436D02*
X037006Y009436D01*
X037006Y009438D02*
X035155Y009438D01*
X035155Y009441D02*
X037006Y009441D01*
X037006Y009443D02*
X035155Y009443D01*
X035155Y009446D02*
X037006Y009446D01*
X037006Y009448D02*
X035155Y009448D01*
X035155Y009451D02*
X037006Y009451D01*
X037006Y009453D02*
X035155Y009453D01*
X035155Y009456D02*
X037006Y009456D01*
X037006Y009458D02*
X035155Y009458D01*
X035155Y009461D02*
X037006Y009461D01*
X037006Y009463D02*
X035155Y009463D01*
X035155Y009466D02*
X037006Y009466D01*
X037006Y009468D02*
X035155Y009468D01*
X035155Y009471D02*
X037006Y009471D01*
X037006Y009473D02*
X035155Y009473D01*
X035155Y009475D02*
X037006Y009475D01*
X037006Y009478D02*
X035155Y009478D01*
X035155Y009480D02*
X037006Y009480D01*
X037006Y009483D02*
X035155Y009483D01*
X035155Y009485D02*
X037006Y009485D01*
X037006Y009488D02*
X035155Y009488D01*
X035155Y009490D02*
X037006Y009490D01*
X037006Y009493D02*
X035155Y009493D01*
X035155Y009495D02*
X037006Y009495D01*
X037006Y009498D02*
X035155Y009498D01*
X035155Y009500D02*
X037006Y009500D01*
X037006Y009503D02*
X035155Y009503D01*
X035155Y009505D02*
X037006Y009505D01*
X037006Y009508D02*
X035155Y009508D01*
X035155Y009510D02*
X037006Y009510D01*
X037006Y009513D02*
X035155Y009513D01*
X035155Y009515D02*
X037006Y009515D01*
X037006Y009518D02*
X035155Y009518D01*
X035155Y009520D02*
X037006Y009520D01*
X037006Y009523D02*
X035155Y009523D01*
X035155Y009525D02*
X037006Y009525D01*
X037006Y009528D02*
X035155Y009528D01*
X035155Y009530D02*
X037006Y009530D01*
X037006Y009533D02*
X035155Y009533D01*
X035155Y009535D02*
X037006Y009535D01*
X037006Y009537D02*
X035155Y009537D01*
X035155Y009540D02*
X037006Y009540D01*
X037006Y009542D02*
X035155Y009542D01*
X035155Y009545D02*
X037006Y009545D01*
X037006Y009547D02*
X035155Y009547D01*
X035155Y009550D02*
X037006Y009550D01*
X037005Y009552D02*
X035156Y009552D01*
X035158Y009555D02*
X037003Y009555D01*
X037000Y009557D02*
X035161Y009557D01*
X035163Y009560D02*
X036998Y009560D01*
X036996Y009562D02*
X035166Y009562D01*
X035168Y009565D02*
X036993Y009565D01*
X036991Y009567D02*
X035171Y009567D01*
X035173Y009570D02*
X036988Y009570D01*
X036986Y009572D02*
X035176Y009572D01*
X035178Y009575D02*
X036983Y009575D01*
X036981Y009577D02*
X035181Y009577D01*
X035183Y009580D02*
X036978Y009580D01*
X036976Y009582D02*
X035186Y009582D01*
X035188Y009585D02*
X036973Y009585D01*
X036971Y009587D02*
X035191Y009587D01*
X035193Y009590D02*
X036968Y009590D01*
X036966Y009592D02*
X035196Y009592D01*
X035198Y009595D02*
X036963Y009595D01*
X036961Y009597D02*
X035200Y009597D01*
X035203Y009599D02*
X036958Y009599D01*
X036956Y009602D02*
X035205Y009602D01*
X035208Y009604D02*
X036953Y009604D01*
X036951Y009607D02*
X035210Y009607D01*
X035213Y009609D02*
X036948Y009609D01*
X036946Y009612D02*
X035215Y009612D01*
X035218Y009614D02*
X036943Y009614D01*
X036941Y009617D02*
X035220Y009617D01*
X035223Y009619D02*
X036938Y009619D01*
X036936Y009622D02*
X035225Y009622D01*
X035228Y009624D02*
X036934Y009624D01*
X036931Y009627D02*
X035230Y009627D01*
X035233Y009629D02*
X036929Y009629D01*
X036926Y009632D02*
X035235Y009632D01*
X035238Y009634D02*
X036924Y009634D01*
X036921Y009637D02*
X035240Y009637D01*
X035243Y009639D02*
X036919Y009639D01*
X036916Y009642D02*
X035245Y009642D01*
X035248Y009644D02*
X036914Y009644D01*
X036911Y009647D02*
X035250Y009647D01*
X035253Y009649D02*
X036909Y009649D01*
X036906Y009652D02*
X035255Y009652D01*
X035258Y009654D02*
X036904Y009654D01*
X036901Y009657D02*
X035260Y009657D01*
X035262Y009659D02*
X036899Y009659D01*
X036896Y009661D02*
X035265Y009661D01*
X035267Y009664D02*
X036894Y009664D01*
X036891Y009666D02*
X035270Y009666D01*
X035272Y009669D02*
X036889Y009669D01*
X036886Y009671D02*
X035275Y009671D01*
X035277Y009674D02*
X036884Y009674D01*
X036881Y009676D02*
X035280Y009676D01*
X035282Y009679D02*
X036879Y009679D01*
X036876Y009681D02*
X035285Y009681D01*
X035287Y009684D02*
X036874Y009684D01*
X036871Y009686D02*
X035290Y009686D01*
X035292Y009689D02*
X036869Y009689D01*
X036867Y009691D02*
X035295Y009691D01*
X035297Y009694D02*
X036864Y009694D01*
X036862Y009696D02*
X035300Y009696D01*
X035302Y009699D02*
X036859Y009699D01*
X036857Y009701D02*
X035305Y009701D01*
X035307Y009704D02*
X036854Y009704D01*
X036852Y009706D02*
X035310Y009706D01*
X035312Y009709D02*
X036849Y009709D01*
X036847Y009711D02*
X035315Y009711D01*
X035317Y009714D02*
X036844Y009714D01*
X036842Y009716D02*
X035320Y009716D01*
X035322Y009719D02*
X036839Y009719D01*
X036837Y009721D02*
X035324Y009721D01*
X035327Y009724D02*
X036834Y009724D01*
X036832Y009726D02*
X035329Y009726D01*
X035332Y009728D02*
X036829Y009728D01*
X036827Y009731D02*
X035334Y009731D01*
X035337Y009733D02*
X036824Y009733D01*
X036822Y009736D02*
X035339Y009736D01*
X035342Y009738D02*
X036819Y009738D01*
X036817Y009741D02*
X035344Y009741D01*
X035347Y009743D02*
X036814Y009743D01*
X036812Y009746D02*
X035349Y009746D01*
X035352Y009748D02*
X036809Y009748D01*
X036807Y009751D02*
X035354Y009751D01*
X035357Y009753D02*
X036805Y009753D01*
X036802Y009756D02*
X035359Y009756D01*
X035362Y009758D02*
X036800Y009758D01*
X036797Y009761D02*
X035364Y009761D01*
X035367Y009763D02*
X036795Y009763D01*
X036792Y009766D02*
X035369Y009766D01*
X035372Y009768D02*
X036790Y009768D01*
X036787Y009771D02*
X035374Y009771D01*
X035377Y009773D02*
X036785Y009773D01*
X036782Y009776D02*
X035379Y009776D01*
X035382Y009778D02*
X036780Y009778D01*
X036777Y009781D02*
X035384Y009781D01*
X035386Y009783D02*
X036775Y009783D01*
X036772Y009786D02*
X035389Y009786D01*
X035391Y009788D02*
X036770Y009788D01*
X036767Y009790D02*
X035394Y009790D01*
X035396Y009793D02*
X036765Y009793D01*
X036762Y009795D02*
X035399Y009795D01*
X035401Y009798D02*
X036760Y009798D01*
X036757Y009800D02*
X035404Y009800D01*
X035406Y009803D02*
X036755Y009803D01*
X036752Y009805D02*
X035409Y009805D01*
X035411Y009808D02*
X036750Y009808D01*
X036747Y009810D02*
X035414Y009810D01*
X035416Y009813D02*
X036745Y009813D01*
X036743Y009815D02*
X035419Y009815D01*
X035421Y009818D02*
X036740Y009818D01*
X036738Y009820D02*
X035424Y009820D01*
X035426Y009823D02*
X036735Y009823D01*
X036733Y009825D02*
X035429Y009825D01*
X035431Y009828D02*
X036730Y009828D01*
X036728Y009830D02*
X035434Y009830D01*
X035436Y009833D02*
X036725Y009833D01*
X036723Y009835D02*
X035439Y009835D01*
X035441Y009838D02*
X036720Y009838D01*
X036718Y009840D02*
X035444Y009840D01*
X035446Y009843D02*
X036715Y009843D01*
X036713Y009845D02*
X035449Y009845D01*
X035451Y009848D02*
X036710Y009848D01*
X036708Y009850D02*
X035453Y009850D01*
X035456Y009852D02*
X036705Y009852D01*
X036703Y009855D02*
X035458Y009855D01*
X035461Y009857D02*
X036700Y009857D01*
X036698Y009860D02*
X035463Y009860D01*
X035466Y009862D02*
X036695Y009862D01*
X036693Y009865D02*
X035468Y009865D01*
X035471Y009867D02*
X036690Y009867D01*
X036688Y009870D02*
X035473Y009870D01*
X035476Y009872D02*
X036685Y009872D01*
X036683Y009875D02*
X035478Y009875D01*
X035481Y009877D02*
X036681Y009877D01*
X036678Y009880D02*
X035483Y009880D01*
X035486Y009882D02*
X036676Y009882D01*
X036673Y009885D02*
X035488Y009885D01*
X035491Y009887D02*
X036671Y009887D01*
X036668Y009890D02*
X035493Y009890D01*
X035496Y009892D02*
X036666Y009892D01*
X036663Y009895D02*
X035498Y009895D01*
X035501Y009897D02*
X036661Y009897D01*
X036658Y009900D02*
X035503Y009900D01*
X035506Y009902D02*
X036656Y009902D01*
X036653Y009905D02*
X035508Y009905D01*
X035511Y009907D02*
X036651Y009907D01*
X036648Y009910D02*
X035513Y009910D01*
X035515Y009912D02*
X036646Y009912D01*
X036643Y009914D02*
X035518Y009914D01*
X035520Y009917D02*
X036641Y009917D01*
X036638Y009919D02*
X035523Y009919D01*
X035525Y009922D02*
X036636Y009922D01*
X036633Y009924D02*
X035528Y009924D01*
X035530Y009927D02*
X036631Y009927D01*
X036628Y009929D02*
X035533Y009929D01*
X035535Y009932D02*
X036626Y009932D01*
X036623Y009934D02*
X035538Y009934D01*
X035540Y009937D02*
X036621Y009937D01*
X036619Y009939D02*
X035543Y009939D01*
X035545Y009942D02*
X036616Y009942D01*
X036614Y009944D02*
X035548Y009944D01*
X035550Y009947D02*
X036611Y009947D01*
X036609Y009949D02*
X035553Y009949D01*
X035555Y009952D02*
X036606Y009952D01*
X036604Y009954D02*
X035558Y009954D01*
X035560Y009957D02*
X036601Y009957D01*
X036599Y009959D02*
X035563Y009959D01*
X035565Y009962D02*
X036596Y009962D01*
X036594Y009964D02*
X035568Y009964D01*
M02*
