G75*
G70*
%OFA0B0*%
%FSLAX24Y24*%
%IPPOS*%
%LPD*%
%AMOC8*
5,1,8,0,0,1.08239X$1,22.5*
%
%ADD10C,0.0040*%
%ADD11C,0.0030*%
D10*
X039117Y004148D02*
X039347Y004148D01*
X039424Y004225D01*
X039424Y004378D01*
X039347Y004455D01*
X039117Y004455D01*
X039117Y004608D02*
X039117Y004148D01*
X039578Y004455D02*
X039654Y004455D01*
X039808Y004301D01*
X039808Y004148D02*
X039808Y004455D01*
X039961Y004378D02*
X040038Y004455D01*
X040191Y004455D01*
X040191Y004301D02*
X039961Y004301D01*
X039961Y004378D02*
X039961Y004148D01*
X040191Y004148D01*
X040268Y004225D01*
X040191Y004301D01*
X040422Y004225D02*
X040422Y004378D01*
X040498Y004455D01*
X040652Y004455D01*
X040728Y004378D01*
X040728Y004225D01*
X040652Y004148D01*
X040498Y004148D01*
X040422Y004225D01*
X040882Y004225D02*
X040959Y004148D01*
X041189Y004148D01*
X041189Y004608D01*
X040959Y004608D01*
X040882Y004532D01*
X040882Y004455D01*
X040959Y004378D01*
X041189Y004378D01*
X040959Y004378D02*
X040882Y004301D01*
X040882Y004225D01*
X041803Y004455D02*
X041879Y004455D01*
X042033Y004301D01*
X042033Y004148D02*
X042033Y004455D01*
X042186Y004378D02*
X042186Y004301D01*
X042493Y004301D01*
X042493Y004225D02*
X042493Y004378D01*
X042416Y004455D01*
X042263Y004455D01*
X042186Y004378D01*
X042263Y004148D02*
X042416Y004148D01*
X042493Y004225D01*
X042647Y004148D02*
X042723Y004225D01*
X042723Y004532D01*
X042800Y004455D02*
X042647Y004455D01*
X042953Y004378D02*
X042953Y004225D01*
X043030Y004148D01*
X043260Y004148D01*
X043260Y003995D02*
X043260Y004455D01*
X043030Y004455D01*
X042953Y004378D01*
X043414Y004378D02*
X043414Y004148D01*
X043644Y004148D01*
X043721Y004225D01*
X043644Y004301D01*
X043414Y004301D01*
X043414Y004378D02*
X043491Y004455D01*
X043644Y004455D01*
X043874Y004455D02*
X044104Y004455D01*
X044181Y004378D01*
X044181Y004225D01*
X044104Y004148D01*
X043874Y004148D01*
X043874Y004608D01*
X044335Y004455D02*
X044335Y004148D01*
X044335Y004378D02*
X044641Y004378D01*
X044641Y004455D02*
X044488Y004608D01*
X044335Y004455D01*
X044641Y004455D02*
X044641Y004148D01*
X045255Y004148D02*
X045255Y004608D01*
X045562Y004608D02*
X045255Y004148D01*
X045562Y004148D02*
X045562Y004608D01*
X045716Y004455D02*
X045716Y004148D01*
X045716Y004378D02*
X046022Y004378D01*
X046022Y004455D02*
X046022Y004148D01*
X046176Y004225D02*
X046253Y004148D01*
X046406Y004148D01*
X046483Y004225D01*
X046483Y004532D01*
X046406Y004608D01*
X046253Y004608D01*
X046176Y004532D01*
X046022Y004455D02*
X045869Y004608D01*
X045716Y004455D01*
X045483Y003608D02*
X045483Y003301D01*
X045329Y003148D01*
X045176Y003301D01*
X045176Y003608D01*
X045022Y003378D02*
X044946Y003455D01*
X044792Y003455D01*
X044716Y003378D01*
X044716Y003301D01*
X045022Y003301D01*
X045022Y003225D02*
X045022Y003378D01*
X045022Y003225D02*
X044946Y003148D01*
X044792Y003148D01*
X044562Y003148D02*
X044562Y003455D01*
X044409Y003455D02*
X044562Y003301D01*
X044409Y003455D02*
X044332Y003455D01*
X044179Y003378D02*
X044102Y003455D01*
X043872Y003455D01*
X043718Y003455D02*
X043641Y003455D01*
X043641Y003148D01*
X043565Y003148D02*
X043718Y003148D01*
X043872Y003225D02*
X043948Y003301D01*
X044102Y003301D01*
X044179Y003378D01*
X044179Y003148D02*
X043948Y003148D01*
X043872Y003225D01*
X043411Y003225D02*
X043335Y003148D01*
X043181Y003148D01*
X043104Y003225D01*
X043104Y003378D01*
X043181Y003455D01*
X043335Y003455D01*
X043411Y003378D01*
X043411Y003225D01*
X042951Y003148D02*
X042951Y003455D01*
X042721Y003455D01*
X042644Y003378D01*
X042644Y003148D01*
X042030Y003148D02*
X041723Y003148D01*
X041570Y003148D02*
X041493Y003148D01*
X041493Y003225D01*
X041570Y003225D01*
X041570Y003148D01*
X041340Y003225D02*
X041033Y003532D01*
X041033Y003225D01*
X041110Y003148D01*
X041263Y003148D01*
X041340Y003225D01*
X041340Y003532D01*
X041263Y003608D01*
X041110Y003608D01*
X041033Y003532D01*
X041877Y003608D02*
X042030Y003455D01*
X041877Y003608D02*
X041877Y003148D01*
X043641Y003608D02*
X043641Y003685D01*
D11*
X038945Y000766D02*
X038699Y000766D01*
X038699Y000828D01*
X038760Y000890D01*
X038884Y000890D01*
X038945Y000828D01*
X038945Y000705D01*
X038884Y000643D01*
X038760Y000643D01*
X039067Y000643D02*
X039067Y000828D01*
X039129Y000890D01*
X039314Y000890D01*
X039314Y000643D01*
X039435Y000643D02*
X039620Y000643D01*
X039682Y000705D01*
X039620Y000766D01*
X039435Y000766D01*
X039435Y000828D02*
X039435Y000643D01*
X039435Y000828D02*
X039497Y000890D01*
X039620Y000890D01*
X039804Y000890D02*
X039804Y000705D01*
X039865Y000643D01*
X039927Y000705D01*
X039989Y000643D01*
X040050Y000705D01*
X040050Y000890D01*
X040172Y000828D02*
X040234Y000890D01*
X040357Y000890D01*
X040419Y000828D01*
X040419Y000705D01*
X040357Y000643D01*
X040234Y000643D01*
X040172Y000705D01*
X040172Y000828D01*
X040540Y000828D02*
X040540Y000952D01*
X040602Y001013D01*
X040787Y001013D01*
X040787Y000643D01*
X040787Y000766D02*
X040602Y000766D01*
X040540Y000828D01*
X040664Y000766D02*
X040540Y000643D01*
X041277Y000643D02*
X041401Y000643D01*
X041339Y000643D02*
X041339Y001013D01*
X041401Y001013D01*
X041584Y000890D02*
X041522Y000828D01*
X041522Y000766D01*
X041769Y000766D01*
X041769Y000705D02*
X041769Y000828D01*
X041707Y000890D01*
X041584Y000890D01*
X041584Y000643D02*
X041707Y000643D01*
X041769Y000705D01*
X041891Y000766D02*
X042076Y000766D01*
X042137Y000705D01*
X042076Y000643D01*
X041891Y000643D01*
X041891Y000828D01*
X041952Y000890D01*
X042076Y000890D01*
X042259Y000828D02*
X042259Y000643D01*
X042259Y000828D02*
X042321Y000890D01*
X042444Y000890D01*
X042506Y000828D01*
X042627Y000890D02*
X042812Y000890D01*
X042874Y000828D01*
X042874Y000705D01*
X042812Y000643D01*
X042627Y000643D01*
X042506Y000643D02*
X042506Y001013D01*
X043058Y001013D02*
X043058Y001075D01*
X043058Y000890D02*
X043058Y000643D01*
X043120Y000643D02*
X042996Y000643D01*
X043241Y000643D02*
X043241Y001013D01*
X043364Y000890D01*
X043488Y001013D01*
X043488Y000643D01*
X043120Y000890D02*
X043058Y000890D01*
M02*
