G75*
G70*
%OFA0B0*%
%FSLAX24Y24*%
%IPPOS*%
%LPD*%
%AMOC8*
5,1,8,0,0,1.08239X$1,22.5*
%
%ADD10R,0.0740X0.0740*%
%ADD11C,0.0740*%
%ADD12C,0.2000*%
%ADD13C,0.0709*%
%ADD14C,0.0768*%
%ADD15C,0.0376*%
%ADD16C,0.0240*%
%ADD17C,0.0160*%
%ADD18C,0.0200*%
%ADD19R,0.0376X0.0376*%
D10*
X048322Y008069D03*
D11*
X049412Y008069D03*
X050503Y008069D03*
X051593Y008069D03*
X052684Y008069D03*
X052137Y009187D03*
X051046Y009187D03*
X049960Y009187D03*
X048869Y009187D03*
D12*
X045582Y008628D03*
X055424Y008628D03*
D13*
X041199Y008824D03*
X039807Y008824D03*
X040503Y008128D03*
X041199Y007432D03*
X039807Y007432D03*
D14*
X040503Y009703D03*
D15*
X044003Y007128D03*
X050403Y006928D03*
X051003Y006428D03*
X052103Y004728D03*
X050403Y003428D03*
X045603Y005128D03*
D16*
X041203Y005128D01*
X041199Y005328D02*
X041199Y007432D01*
X041507Y008824D02*
X043203Y007128D01*
X044003Y007128D01*
X050403Y006928D02*
X050503Y007228D01*
X050503Y008069D01*
D17*
X039307Y007932D02*
X039103Y007932D01*
X039103Y009703D01*
X040503Y009703D01*
X041199Y008824D02*
X041507Y008824D01*
X039807Y007432D02*
X039307Y007932D01*
X044003Y007128D02*
X047103Y007028D01*
X047103Y009228D01*
X048869Y009187D01*
X049412Y008069D02*
X049412Y006619D01*
X049503Y006528D01*
X050903Y006528D01*
X051003Y006428D01*
X050903Y005828D02*
X050903Y004028D01*
X050403Y003428D02*
X050403Y000728D01*
X054703Y000728D01*
X054703Y005728D01*
X053684Y007847D01*
X052684Y008069D01*
X049203Y004828D02*
X049803Y003128D01*
X049903Y000928D01*
X047603Y004228D02*
X043803Y001828D01*
X052103Y004728D02*
X052137Y004762D01*
X041203Y005128D02*
X041203Y005328D01*
X041199Y005328D01*
D18*
X052137Y004762D02*
X052137Y009187D01*
D19*
X050903Y005828D03*
X049203Y004828D03*
X047603Y004228D03*
X050903Y004028D03*
X043803Y001828D03*
X049903Y000928D03*
M02*
