%
M48
M72
T01C0.0157
T02C0.0402
T03C0.0429
T04C0.1181
T05C0.1252
T06C0.1732
%
T01
X28915Y5320
X28915Y6894
X30490Y8666
X35608Y6894
X35608Y5320
X34821Y2564
X36396Y2564
T02
X23972Y12952
X25823Y14133
X25823Y11770
X25766Y4926
X26947Y4926
X26947Y3745
X25766Y3745
X24585Y3745
X24585Y4926
X30884Y4926
X32065Y4926
X33246Y4926
X33246Y3745
X32065Y3745
X30884Y3745
X37183Y3745
X38364Y3745
X39545Y3745
X39545Y4926
X38364Y4926
X37183Y4926
T03
X37403Y12952
X36313Y12952
X35222Y12952
X34132Y12952
X33041Y12952
X33587Y14070
X34677Y14070
X35768Y14070
X36858Y14070
T04
X38364Y2044
X32065Y2044
X25766Y2044
T05
X30303Y13511
X40142Y13511
T06
X38364Y8469
X26553Y8469
M30
