%
M48
M72
T01C0.0236
T02C0.0400
T03C0.0472
T04C0.0512
T05C0.0925
T06C0.1102
T07C0.1300
%
T01
X43803Y1828
X49903Y928
X50403Y3428
X50903Y4028
X52103Y4728
X49203Y4828
X47603Y4228
X45603Y5128
X50903Y5828
X51003Y6428
X50403Y6928
X44003Y7128
T02
X48322Y8069
X49412Y8069
X50503Y8069
X51593Y8069
X52684Y8069
X52137Y9187
X51046Y9187
X49960Y9187
X48869Y9187
T03
X41199Y8824
X39807Y8824
X40503Y8128
X41199Y7432
X39807Y7432
T04
X40503Y9703
T05
X37550Y8128
X43456Y8128
T06
X43456Y9703
X37550Y9703
T07
X45582Y8628
X55424Y8628
M30
