G75*
G70*
%OFA0B0*%
%FSLAX24Y24*%
%IPPOS*%
%LPD*%
%AMOC8*
5,1,8,0,0,1.08239X$1,22.5*
%
%ADD10C,0.1812*%
%ADD11R,0.0682X0.0682*%
%ADD12C,0.0682*%
%ADD13C,0.1261*%
%ADD14C,0.0986*%
%ADD15C,0.1064*%
%ADD16R,0.0552X0.0552*%
%ADD17C,0.0724*%
%ADD18C,0.1332*%
D10*
X026553Y008469D03*
X038364Y008469D03*
D11*
X039545Y003745D03*
X033246Y003745D03*
X026947Y003745D03*
D12*
X025766Y003745D03*
X024585Y003745D03*
X024585Y004926D03*
X025766Y004926D03*
X026947Y004926D03*
X030884Y004926D03*
X032065Y004926D03*
X033246Y004926D03*
X032065Y003745D03*
X030884Y003745D03*
X037183Y003745D03*
X038364Y003745D03*
X038364Y004926D03*
X037183Y004926D03*
X039545Y004926D03*
D13*
X038364Y002044D03*
X032065Y002044D03*
X025766Y002044D03*
D14*
X023972Y012499D02*
X023972Y013404D01*
X025370Y014133D02*
X026276Y014133D01*
D15*
X026315Y011770D02*
X025331Y011770D01*
D16*
X032045Y008666D03*
X032872Y008666D03*
D17*
X033041Y012952D03*
X034132Y012952D03*
X035222Y012952D03*
X036313Y012952D03*
X037403Y012952D03*
X036858Y014070D03*
X035768Y014070D03*
X034677Y014070D03*
X033587Y014070D03*
D18*
X030303Y013511D03*
X040142Y013511D03*
M02*
