G75*
G70*
%OFA0B0*%
%FSLAX24Y24*%
%IPPOS*%
%LPD*%
%AMOC8*
5,1,8,0,0,1.08239X$1,22.5*
%
%ADD10C,0.0080*%
%ADD11C,0.0040*%
%ADD12C,0.0039*%
%ADD13R,0.0079X0.0079*%
D10*
X024050Y010747D02*
X024390Y010747D01*
X024594Y010832D02*
X024764Y011003D01*
X024764Y010492D01*
X024594Y010492D02*
X024934Y010492D01*
X025137Y010492D02*
X025478Y010832D01*
X025478Y010917D01*
X025393Y011003D01*
X025222Y011003D01*
X025137Y010917D01*
X025681Y011003D02*
X025681Y010662D01*
X025851Y010492D01*
X026022Y010662D01*
X026022Y011003D01*
X026768Y011003D02*
X026939Y011003D01*
X026854Y011003D02*
X026854Y010492D01*
X026939Y010492D02*
X026768Y010492D01*
X027131Y010492D02*
X027131Y011003D01*
X027472Y010492D01*
X027472Y011003D01*
X025478Y010492D02*
X025137Y010492D01*
X024220Y010577D02*
X024220Y010917D01*
D11*
X031494Y007839D02*
X031678Y007839D01*
X031784Y007885D02*
X031876Y007977D01*
X031876Y007702D01*
X031784Y007702D02*
X031968Y007702D01*
X032074Y007702D02*
X032258Y007885D01*
X032258Y007931D01*
X032212Y007977D01*
X032120Y007977D01*
X032074Y007931D01*
X032074Y007702D02*
X032258Y007702D01*
X032364Y007794D02*
X032456Y007702D01*
X032548Y007794D01*
X032548Y007977D01*
X032364Y007977D02*
X032364Y007794D01*
X032944Y007748D02*
X032944Y007931D01*
X032990Y007977D01*
X033082Y007977D01*
X033128Y007931D01*
X033128Y007748D01*
X033082Y007702D01*
X032990Y007702D01*
X032944Y007748D01*
X033234Y007794D02*
X033418Y007977D01*
X033234Y007977D02*
X033234Y007702D01*
X033280Y007839D02*
X033418Y007702D01*
X031586Y007748D02*
X031586Y007931D01*
D12*
X033246Y009139D02*
X033246Y009375D01*
X033128Y009257D02*
X033364Y009257D01*
D13*
X032419Y008666D03*
M02*
